<svg width="16" height="16" viewBox="0 0 16 16" fill="none" xmlns="http://www.w3.org/2000/svg">
<path fill-rule="evenodd" clip-rule="evenodd" d="M2 8.23799L6.99466 3.23052C7.15688 3.07684 7.34472 3 7.55816 3C7.77161 3 7.95518 3.07684 8.10886 3.23052C8.26254 3.38421 8.33938 3.57204 8.33938 3.79402C8.33938 4.01601 8.26254 4.19957 8.10886 4.34472L4.9968 7.45678H13.2188C13.4322 7.45678 13.6158 7.53362 13.7695 7.6873C13.9232 7.84098 14 8.02455 14 8.23799C14 8.45144 13.9232 8.635 13.7695 8.78869C13.6158 8.94237 13.4322 9.01921 13.2188 9.01921H4.9968L8.10886 12.1313C8.26254 12.285 8.33938 12.4728 8.33938 12.6948C8.33938 12.9168 8.26254 13.1003 8.10886 13.2455C7.95518 13.3906 7.77161 13.4674 7.55816 13.476C7.34472 13.4845 7.15688 13.4077 6.99466 13.2455L2 8.23799Z" fill="black"/>
<mask id="mask0_50_1734" style="mask-type:alpha" maskUnits="userSpaceOnUse" x="2" y="3" width="12" height="11">
<path fill-rule="evenodd" clip-rule="evenodd" d="M2 8.23799L6.99466 3.23052C7.15688 3.07684 7.34472 3 7.55816 3C7.77161 3 7.95518 3.07684 8.10886 3.23052C8.26254 3.38421 8.33938 3.57204 8.33938 3.79402C8.33938 4.01601 8.26254 4.19957 8.10886 4.34472L4.9968 7.45678H13.2188C13.4322 7.45678 13.6158 7.53362 13.7695 7.6873C13.9232 7.84098 14 8.02455 14 8.23799C14 8.45144 13.9232 8.635 13.7695 8.78869C13.6158 8.94237 13.4322 9.01921 13.2188 9.01921H4.9968L8.10886 12.1313C8.26254 12.285 8.33938 12.4728 8.33938 12.6948C8.33938 12.9168 8.26254 13.1003 8.10886 13.2455C7.95518 13.3906 7.77161 13.4674 7.55816 13.476C7.34472 13.4845 7.15688 13.4077 6.99466 13.2455L2 8.23799Z" fill="white"/>
</mask>
<g mask="url(#mask0_50_1734)">
<rect x="-2" y="-2" width="20" height="20" fill="#857F87"/>
</g>
</svg>
