<svg width="16" height="16" viewBox="0 0 16 16" fill="none" xmlns="http://www.w3.org/2000/svg">
<path d="M0 13.9942C0 13.4344 0.202136 12.9524 0.606414 12.5481L5.15452 8L0.606414 3.42857C0.202136 3.03984 0 2.5656 0 2.00583C0 1.44606 0.202136 0.97182 0.606414 0.583091C1.01069 0.194362 1.48493 0 2.02915 0C2.57338 0 3.04762 0.194362 3.45189 0.583091L8.02332 5.15452L12.5714 0.583091C12.9602 0.194362 13.4344 0 13.9942 0C14.5539 0 15.0282 0.194362 15.4169 0.583091C15.8056 0.97182 16 1.44606 16 2.00583C16 2.5656 15.8056 3.03984 15.4169 3.42857L10.8688 8L15.4169 12.5481C15.8056 12.9524 16 13.4344 16 13.9942C16 14.5539 15.8056 15.0282 15.4169 15.4169C15.0282 15.8056 14.5539 16 13.9942 16C13.4344 16 12.9602 15.8056 12.5714 15.4169L8.02332 10.8688L3.45189 15.4169C3.06317 15.8056 2.58892 16 2.02915 16C1.46939 16 0.991256 15.8018 0.594752 15.4052C0.198249 15.0087 0 14.5384 0 13.9942Z" fill="#857F87"/>
</svg>
