<svg width="16" height="16" viewBox="0 0 16 16" fill="none" xmlns="http://www.w3.org/2000/svg">
<mask id="mask0_50_2845" style="mask-type:alpha" maskUnits="userSpaceOnUse" x="0" y="0" width="16" height="17">
<path d="M11.0744 6.77032C11.0744 5.58772 10.6554 4.57735 9.81721 3.7392C8.97905 2.90104 7.96295 2.47623 6.76887 2.46475C5.57479 2.45327 4.55868 2.87808 3.72053 3.7392C2.88238 4.60032 2.4633 5.61068 2.4633 6.77032C2.4633 7.92995 2.88238 8.94606 3.72053 9.81866C4.55868 10.6913 5.57479 11.1103 6.76887 11.0759C7.96295 11.0414 8.97905 10.6224 9.81721 9.81866C10.6554 9.01495 11.0744 7.99884 11.0744 6.77032ZM16 14.7787C16 15.1116 15.8737 15.3987 15.6211 15.6398C15.3685 15.8809 15.0757 16.0014 14.7428 16.0014C14.4098 16.0014 14.1285 15.8809 13.8989 15.6398L10.6094 12.3503C9.46128 13.1426 8.1811 13.5387 6.76887 13.5387C5.85034 13.5387 4.97202 13.3607 4.13386 13.0048C3.29571 12.6488 2.57812 12.1666 1.98108 11.5581C1.38404 10.9496 0.901822 10.232 0.534412 9.40532C0.167002 8.57865 -0.0109597 7.70032 0.000521897 6.77032C0.0120035 5.84031 0.189965 4.96772 0.534412 4.15253C0.878859 3.33734 1.36108 2.61401 1.98108 1.98253C2.60109 1.35104 3.31867 0.868823 4.13386 0.535858C4.94906 0.202893 5.82738 0.0249314 6.76887 0.00196829C7.71036 -0.0209948 8.58868 0.156966 9.40388 0.535858C10.2191 0.91475 10.9367 1.39697 11.5567 1.98253C12.1767 2.56809 12.6589 3.29142 13.0033 4.15253C13.3478 5.01365 13.5257 5.88624 13.5372 6.77032C13.5372 8.18255 13.1411 9.46272 12.3489 10.6109L15.6383 13.9003C15.8794 14.1414 16 14.4342 16 14.7787Z" fill="white"/>
</mask>
<g mask="url(#mask0_50_2845)">
<path d="M11.0744 6.77032C11.0744 5.58771 10.6554 4.57735 9.81721 3.7392C8.97905 2.90104 7.96295 2.47623 6.76887 2.46475C5.57479 2.45327 4.55868 2.87808 3.72053 3.7392C2.88238 4.60032 2.4633 5.61068 2.4633 6.77032C2.4633 7.92995 2.88238 8.94606 3.72053 9.81866C4.55868 10.6913 5.57479 11.1103 6.76887 11.0759C7.96295 11.0414 8.97905 10.6224 9.81721 9.81866C10.6554 9.01495 11.0744 7.99884 11.0744 6.77032ZM16 14.7787C16 15.1116 15.8737 15.3987 15.6211 15.6398C15.3685 15.8809 15.0757 16.0014 14.7428 16.0014C14.4098 16.0014 14.1285 15.8809 13.8989 15.6398L10.6094 12.3503C9.46128 13.1426 8.1811 13.5387 6.76887 13.5387C5.85034 13.5387 4.97202 13.3607 4.13386 13.0048C3.29571 12.6488 2.57812 12.1666 1.98108 11.5581C1.38404 10.9496 0.901822 10.232 0.534412 9.40532C0.167002 8.57865 -0.0109597 7.70032 0.000521897 6.77032C0.0120035 5.84031 0.189965 4.96772 0.534412 4.15253C0.878859 3.33734 1.36108 2.61401 1.98108 1.98253C2.60109 1.35104 3.31867 0.868823 4.13386 0.535858C4.94906 0.202893 5.82738 0.0249314 6.76887 0.00196829C7.71036 -0.0209948 8.58868 0.156966 9.40387 0.535858C10.2191 0.91475 10.9367 1.39697 11.5567 1.98253C12.1767 2.56809 12.6589 3.29142 13.0033 4.15253C13.3478 5.01365 13.5257 5.88624 13.5372 6.77032C13.5372 8.18255 13.1411 9.46272 12.3489 10.6109L15.6383 13.9003C15.8794 14.1414 16 14.4342 16 14.7787Z" fill="#857F87"/>
</g>
</svg>
