<svg width="23" height="17" viewBox="0 0 23 17" fill="none" xmlns="http://www.w3.org/2000/svg">
<path d="M19.4337 2.12343C19.1084 1.63311 18.649 1.25811 18.1043 1.04061C16.9221 0.566239 15.9049 0.249364 14.9946 0.0703012C14.3562 -0.0543864 13.7243 0.259676 13.4206 0.851239L13.3446 0.999364C12.6706 0.924364 11.9552 0.899989 11.1396 0.920614C10.3043 0.899989 9.58618 0.924364 8.91118 0.999364L8.83618 0.851239C8.53243 0.259676 7.89868 -0.0534487 7.26212 0.0712387C6.35181 0.249364 5.33462 0.566239 4.15243 1.04061C3.60774 1.25905 3.14837 1.63311 2.82306 2.12343C0.557119 5.54624 -0.330693 9.23905 0.108994 13.4119C0.123994 13.5581 0.205557 13.6894 0.330244 13.7672C2.07399 14.8669 3.58243 15.6197 5.07774 16.1372C5.70306 16.3556 6.39681 16.1109 6.76618 15.5466L7.42431 14.5387C6.90024 14.3409 6.38837 14.1066 5.89806 13.8262C5.66743 13.6959 5.58774 13.4025 5.71899 13.1728C5.84931 12.9412 6.14274 12.8606 6.37337 12.9937C7.83306 13.8253 9.48306 14.2659 11.1452 14.2659C12.8074 14.2659 14.4584 13.8253 15.9181 12.9937C16.1477 12.8606 16.4412 12.9412 16.5724 13.1728C16.7037 13.4025 16.6231 13.6959 16.3934 13.8262C15.8862 14.1159 15.3565 14.3569 14.8137 14.5584L15.4915 15.5672C15.7699 15.9825 16.2302 16.2187 16.7046 16.2187C16.8593 16.2187 17.0149 16.1934 17.1668 16.1409C18.6668 15.6234 20.1781 14.8697 21.9256 13.7681C22.0493 13.6894 22.1318 13.5581 22.1468 13.4128C22.5874 9.23905 21.6996 5.54624 19.4337 2.12343ZM8.06181 10.4428C7.13743 10.4428 6.37712 9.46874 6.37712 8.28561C6.37712 7.10155 7.13743 6.12749 8.06181 6.12749C8.98618 6.12749 9.74743 7.10155 9.74743 8.28561C9.74743 9.46874 8.98618 10.4428 8.06181 10.4428ZM14.299 10.4306C13.3831 10.4306 12.6293 9.45093 12.6293 8.2603C12.6293 7.06874 13.3831 6.08905 14.299 6.08905C15.2149 6.08905 15.9677 7.06874 15.9677 8.2603C15.9677 9.45093 15.2149 10.4306 14.299 10.4306Z" fill="#231F20"/>
</svg>
