<svg width="23" height="23" viewBox="0 0 23 23" fill="none" xmlns="http://www.w3.org/2000/svg">
<path fill-rule="evenodd" clip-rule="evenodd" d="M22.7266 11.4044C22.7266 13.8442 22.0122 16.0385 20.5834 17.9875C19.1546 19.9364 17.3089 21.2851 15.0463 22.0336C14.7829 22.0822 14.5903 22.0481 14.4684 21.9315C14.3465 21.8148 14.2855 21.669 14.2855 21.4941V18.4176C14.2855 17.4747 14.032 16.7846 13.5248 16.3472C14.0807 16.2888 14.5806 16.2014 15.0243 16.0847C15.4681 15.9681 15.9264 15.7785 16.3995 15.5161C16.8725 15.2536 17.2674 14.9304 17.5844 14.5465C17.9014 14.1625 18.1598 13.6522 18.3598 13.0155C18.5597 12.3788 18.6597 11.6474 18.6597 10.8211C18.6597 9.64498 18.2744 8.6438 17.504 7.81757C17.8648 6.93301 17.8258 5.94155 17.3869 4.84314C17.1138 4.75566 16.7189 4.80912 16.202 5.00353C15.6851 5.19794 15.2364 5.41178 14.8561 5.64507L14.3002 5.995C13.3932 5.74227 12.4569 5.61591 11.4914 5.61591C10.5259 5.61591 9.58959 5.74227 8.68258 5.995C8.52653 5.88808 8.31929 5.75686 8.06084 5.60133C7.80239 5.4458 7.39522 5.25869 6.83931 5.03998C6.2834 4.82127 5.86404 4.75566 5.58121 4.84314C5.15208 5.94155 5.11794 6.93301 5.4788 7.81757C4.70833 8.6438 4.3231 9.64498 4.3231 10.8211C4.3231 11.6474 4.42306 12.3764 4.62299 13.0082C4.82293 13.64 5.07893 14.1504 5.39102 14.5392C5.70311 14.928 6.09566 15.2536 6.56867 15.5161C7.04168 15.7785 7.50006 15.9681 7.94381 16.0847C8.38756 16.2014 8.88739 16.2888 9.4433 16.3472C9.05319 16.6971 8.81425 17.1977 8.72647 17.849C8.52166 17.9462 8.30223 18.0191 8.06816 18.0677C7.83409 18.1163 7.55614 18.1406 7.2343 18.1406C6.91246 18.1406 6.59305 18.0361 6.27608 17.8271C5.95912 17.6181 5.68849 17.3143 5.46417 16.9158C5.27887 16.6047 5.04237 16.352 4.75466 16.1576C4.46695 15.9632 4.22557 15.8466 4.03052 15.8077L3.73793 15.7639C3.53312 15.7639 3.39171 15.7858 3.31369 15.8296C3.23567 15.8733 3.21128 15.9292 3.24054 15.9972C3.2698 16.0653 3.31369 16.1333 3.37221 16.2014C3.43072 16.2694 3.49412 16.3277 3.56239 16.3763L3.66479 16.4492C3.87935 16.5464 4.09147 16.7311 4.30116 17.0033C4.51084 17.2755 4.66444 17.5233 4.76197 17.7469L4.90826 18.0822C5.03505 18.4516 5.24961 18.7505 5.55195 18.9789C5.85429 19.2074 6.181 19.3532 6.5321 19.4164C6.8832 19.4795 7.2221 19.5136 7.54882 19.5184C7.87554 19.5233 8.14618 19.5063 8.36074 19.4674L8.69721 19.4091C8.69721 19.7784 8.69965 20.211 8.70453 20.7067C8.7094 21.2025 8.71184 21.4649 8.71184 21.4941C8.71184 21.669 8.64845 21.8148 8.52166 21.9315C8.39487 22.0481 8.19982 22.0822 7.93649 22.0336C5.67384 21.2851 3.82816 19.9364 2.39937 17.9875C0.970582 16.0385 0.256195 13.8442 0.256195 11.4044C0.256195 9.37281 0.758461 7.49923 1.763 5.78359C2.76754 4.06794 4.13047 2.70953 5.85184 1.70833C7.57322 0.707135 9.45304 0.206543 11.4914 0.206543C13.5297 0.206543 15.4095 0.707135 17.1309 1.70833C18.8523 2.70953 20.2152 4.06794 21.2198 5.78359C22.2243 7.49923 22.7266 9.37281 22.7266 11.4044Z" fill="#231F20"/>
</svg>
