<svg width="23" height="22" viewBox="0 0 23 22" fill="none" xmlns="http://www.w3.org/2000/svg">
<path fill-rule="evenodd" clip-rule="evenodd" d="M5.52763 7.38367V21.8329H0.700012V7.38367H5.52763Z" fill="#231F20"/>
<path fill-rule="evenodd" clip-rule="evenodd" d="M5.83447 2.92198C5.84423 3.63157 5.59797 4.2245 5.0957 4.7008C4.59343 5.1771 3.93269 5.41524 3.11345 5.41524H3.0842C2.28447 5.41524 1.64079 5.1771 1.15315 4.7008C0.665509 4.2245 0.421692 3.63157 0.421692 2.92198C0.421692 2.20267 0.672823 1.6073 1.17509 1.13587C1.67736 0.664427 2.33323 0.428711 3.14271 0.428711C3.9522 0.428711 4.60075 0.664427 5.08839 1.13587C5.57603 1.6073 5.82472 2.20267 5.83447 2.92198Z" fill="#231F20"/>
<path fill-rule="evenodd" clip-rule="evenodd" d="M13.0032 9.43685C13.189 9.14502 13.3792 8.88829 13.5738 8.66665C13.7786 8.43336 14.0541 8.18064 14.4003 7.90847C14.7465 7.6363 15.1708 7.42488 15.6731 7.27422C16.1753 7.12355 16.7337 7.04822 17.3481 7.04822C19.0158 7.04822 20.3568 7.59984 21.3711 8.7031C22.3854 9.80637 22.8925 11.4224 22.8925 13.5511V21.8328H18.0795V14.1052C18.0795 13.0845 17.8821 12.2851 17.4871 11.7067C17.0921 11.1283 16.4752 10.8391 15.6365 10.8391C15.0221 10.8391 14.5076 11.0068 14.0931 11.3422C13.6786 11.6775 13.369 12.0931 13.1642 12.5888C13.0569 12.8804 13.0032 13.2741 13.0032 13.7698V21.8328H8.19025C8.20975 17.9544 8.2195 14.8099 8.2195 12.3993C8.2195 9.98861 8.21463 8.55001 8.20488 8.08343L8.19025 7.38357H13.0032V9.43685Z" fill="#231F20"/>
</svg>
