<svg width="111" height="38" viewBox="0 0 111 38" fill="none" xmlns="http://www.w3.org/2000/svg">
<path d="M57.2332 24.2437L59.9918 7.99298H64.1533L67.4517 16.6803L70.9444 7.99298H75.1488L77.6062 24.2437H73.381L72.195 14.8905H72.1529L68.2507 24.2437H66.5682L62.8396 14.8905H62.795L61.4367 24.2437H57.2332Z" fill="#231F20"/>
<path d="M88.6717 11.5707H83.65V14.287H88.4122V17.864H83.65V20.6663H88.6717V24.2437H79.4246V7.99298H88.6717V11.5707Z" fill="#231F20"/>
<path d="M103.924 7.99298L100.433 16.679L97.1339 7.99298H92.9712L90.2145 24.2437H94.4183L95.7772 14.8905H95.8186L99.5505 24.2437H101.231L105.132 14.8905H105.176L106.363 24.2437H110.587L108.13 7.99298H103.924Z" fill="#231F20"/>
<path d="M63.0025 31.6638H67.781C67.8014 32.536 67.7305 33.2857 67.566 33.9146C67.4057 34.5442 67.0808 35.143 66.5947 35.7101C66.0769 36.3199 65.4392 36.7919 64.6834 37.1258C63.9277 37.4597 63.1488 37.6261 62.3476 37.6261C60.7345 37.6261 59.3473 37.0495 58.1855 35.8871C57.0237 34.7259 56.4424 33.3369 56.4424 31.7253C56.4424 30.083 57.0268 28.6773 58.1946 27.5099C59.3605 26.3449 60.7699 25.7615 62.4241 25.7615C64.3928 25.7615 66.0103 26.5875 67.2795 28.2414L66.3502 29.1076C65.3243 27.669 64.0109 26.9469 62.4091 26.9469C61.1098 26.9469 60.0051 27.4195 59.0918 28.3616C58.1783 29.305 57.7229 30.4326 57.7229 31.7391C57.7229 32.9882 58.1685 34.0668 59.0617 34.9807C59.497 35.4167 60.0054 35.7697 60.5813 36.0374C61.1616 36.307 61.7409 36.4416 62.3181 36.4416C63.3616 36.4416 64.3065 36.0999 65.1479 35.4148C65.9921 34.7319 66.4117 33.8751 66.4117 32.8523H63.0029V31.6638H63.0025Z" fill="#231F20"/>
<path fill-rule="evenodd" clip-rule="evenodd" d="M72.3454 37.4308V32.3937H72.6639L76.1362 37.4311H77.7028L74.0501 32.2873C74.9333 32.2161 75.6331 31.8903 76.149 31.3138C76.6672 30.7363 76.9267 30.0048 76.9267 29.1235C76.9267 28.5034 76.8144 27.9787 76.5916 27.5478C76.3675 27.1184 76.0467 26.7899 75.6334 26.567C75.2166 26.3439 74.7754 26.1854 74.3078 26.0935C73.8417 26.0018 73.3148 25.9579 72.7267 25.9579H71.0681V37.4308H72.3454ZM72.3453 31.269V27.1458H72.7273C73.0806 27.1458 73.3832 27.1577 73.6324 27.1763C73.8793 27.1985 74.1414 27.2484 74.4169 27.3288C74.689 27.411 74.9084 27.5246 75.0707 27.6718C75.232 27.8187 75.3691 28.022 75.4802 28.281C75.5919 28.538 75.6478 28.8493 75.6478 29.2143C75.6478 29.6405 75.5703 29.9961 75.4131 30.2801C75.2549 30.5635 75.028 30.7759 74.727 30.9103C74.4295 31.0474 74.1235 31.1416 73.8144 31.1927C73.5049 31.2445 73.1472 31.269 72.7423 31.269H72.3453Z" fill="#231F20"/>
<path fill-rule="evenodd" clip-rule="evenodd" d="M82.8538 34.1744H87.755L89.1092 37.4308H90.5255L85.3661 25.4099L80.0695 37.4308H81.471L82.8538 34.1744ZM85.3359 28.3928L87.2541 32.988H83.3707L85.3359 28.3928Z" fill="#231F20"/>
<path fill-rule="evenodd" clip-rule="evenodd" d="M94.5206 37.4316V32.4099H95.4505C96.6463 32.4099 97.5551 32.1566 98.1775 31.6482C98.9056 31.0406 99.2709 30.2187 99.2709 29.1849C99.2709 28.6571 99.1607 28.1618 98.9357 27.7011C98.7125 27.2385 98.3921 26.8613 97.975 26.5675C97.6003 26.3027 97.1895 26.1344 96.7426 26.0654C96.2957 25.992 95.7594 25.9581 95.1298 25.9581H93.2437V37.4316H94.5206ZM94.5206 31.2221V27.1456H94.992C95.3492 27.1456 95.6479 27.1569 95.8915 27.1755C96.1334 27.1977 96.3977 27.2445 96.6826 27.3189C96.9663 27.397 97.1983 27.5031 97.374 27.6393C97.552 27.7771 97.7004 27.971 97.815 28.2256C97.9333 28.4791 97.991 28.7879 97.991 29.1545C97.991 30.5329 97.1179 31.2221 95.373 31.2221H94.5206Z" fill="#231F20"/>
<path d="M103.494 30.6152H109.368V25.9585H110.648V37.4304H109.368V31.8012H103.494V37.4304H102.215V25.9585H103.494V30.6152Z" fill="#231F20"/>
<path d="M13.0992 13.5398C13.1419 13.4708 13.1852 13.4024 13.2216 13.3302C13.2439 13.2916 13.2686 13.2546 13.2884 13.2141C13.3113 13.1745 13.3355 13.1372 13.3568 13.0977C13.3791 13.0597 13.4039 13.0208 13.4237 12.9828C13.4466 12.9445 13.4714 12.9059 13.4921 12.8676C13.515 12.8278 13.5385 12.7901 13.5596 12.7502C13.5831 12.7132 13.606 12.6746 13.6274 12.6351C13.6509 12.5971 13.6738 12.5591 13.6958 12.5202C13.719 12.4829 13.7416 12.4433 13.7639 12.4053C13.7868 12.3674 13.8097 12.3284 13.831 12.2905C13.8546 12.2522 13.8772 12.2148 13.8985 12.1747C13.9227 12.1373 13.945 12.0987 13.9669 12.0604C13.9911 12.0231 14.0121 11.9845 14.0344 11.9462C14.0592 11.9082 14.0799 11.8706 14.1028 11.8326C14.1276 11.794 14.148 11.7566 14.1703 11.7183C14.1945 11.681 14.2158 11.6415 14.2387 11.6029C14.2629 11.5655 14.2836 11.5257 14.3062 11.4892C14.331 11.4519 14.3511 11.412 14.374 11.375C14.3981 11.3389 14.4189 11.2997 14.4415 11.2617C14.4672 11.2244 14.4873 11.1842 14.5111 11.1456C14.5588 11.0737 14.5993 11.0003 14.6423 10.9269C14.6888 10.8515 14.7361 10.7781 14.7769 10.7025C14.8017 10.661 14.8294 10.6193 14.8523 10.5772C14.8752 10.5393 14.9009 10.5004 14.9222 10.4605C14.9452 10.4219 14.9712 10.3842 14.9925 10.345C15.0155 10.3058 15.0409 10.2681 15.0632 10.2283C15.0861 10.1903 15.1121 10.1507 15.1331 10.1128C15.1567 10.0735 15.1821 10.0356 15.2038 9.99602C15.2273 9.95742 15.2527 9.91944 15.2744 9.88053C15.2979 9.84255 15.3221 9.80332 15.3444 9.76566C15.3685 9.72612 15.3927 9.68752 15.415 9.64829C15.4385 9.60969 15.4627 9.5714 15.4856 9.53217C15.5091 9.49419 15.5333 9.45591 15.5553 9.41668C15.5794 9.37933 15.603 9.34042 15.6259 9.30119C15.65 9.26321 15.6736 9.22524 15.6959 9.18632C15.72 9.14835 15.7436 9.11038 15.7665 9.07146C15.7875 9.03882 15.8076 9.00587 15.8277 8.97197C15.8568 8.92647 15.8845 8.87971 15.9127 8.83357C15.9375 8.79403 15.9617 8.75386 15.9852 8.714C16.0103 8.67603 16.0335 8.63586 16.0574 8.59631C16.0822 8.55708 16.1057 8.51785 16.1299 8.478C16.1547 8.43939 16.1779 8.39954 16.2018 8.35968C16.2272 8.32108 16.2507 8.28091 16.2746 8.24293C16.3047 8.19586 16.3317 8.14878 16.3599 8.10296C16.3998 8.04082 16.4381 7.97868 16.4738 7.91623C16.4986 7.87669 16.5237 7.83683 16.5473 7.79603C17.743 5.86971 17.5023 3.30662 15.8245 1.63921C13.8731 -0.300922 10.7172 -0.292134 8.77609 1.65867C7.82643 2.6143 7.345 3.85708 7.32868 5.10489C7.32774 5.12623 7.32837 5.1482 7.32774 5.16892C7.32774 5.17551 7.32712 5.18147 7.32712 5.18712C7.32649 5.21003 7.32649 5.232 7.32617 5.25616C7.32398 5.30543 7.32335 5.35596 7.32241 5.40649C7.32084 5.45702 7.32021 5.50754 7.31958 5.55682C7.31801 5.60734 7.31739 5.65724 7.31676 5.70777C7.31488 5.75704 7.31456 5.80757 7.31393 5.8581C7.31237 5.90737 7.3108 5.95853 7.3108 6.00748C7.3086 6.05801 7.30797 6.10791 7.30734 6.15781C7.30515 6.20771 7.30389 6.25824 7.30389 6.30782C7.3017 6.37216 7.30044 6.43775 7.30044 6.50334C7.29793 6.54885 7.29981 6.59404 7.29918 6.63955C7.29542 6.69227 7.29605 6.74468 7.29479 6.79866C7.29197 6.84919 7.29259 6.90317 7.29134 6.95495C7.28851 7.00736 7.28851 7.06009 7.28663 7.11187C7.28349 7.16522 7.28349 7.21669 7.28287 7.26973C7.28004 7.32151 7.27941 7.37487 7.27878 7.42665C7.27596 7.47937 7.27533 7.53178 7.27471 7.58357C7.27219 7.63629 7.27094 7.68807 7.27031 7.74048C7.26811 7.79289 7.26686 7.84499 7.26623 7.8974C7.26403 7.95012 7.26278 8.00097 7.26215 8.05369C7.25964 8.10642 7.25776 8.1582 7.25776 8.20998C7.25619 8.26239 7.25368 8.31449 7.25368 8.36627C7.25211 8.41899 7.24897 8.47078 7.24897 8.52256C7.24709 8.57497 7.24458 8.62581 7.24458 8.67822C7.24301 8.73001 7.23987 8.78179 7.23987 8.83389C7.23893 8.88567 7.23485 8.93745 7.23548 8.98892C7.23391 9.04165 7.23014 9.0928 7.23077 9.14396C7.22951 9.17848 7.22669 9.213 7.22669 9.24689C7.22606 9.25662 7.22669 9.2629 7.22606 9.27043C7.22606 9.27859 7.22543 9.28424 7.22543 9.29177C7.22292 9.32786 7.22355 9.36301 7.22229 9.3991C7.21821 9.45089 7.21884 9.50361 7.21696 9.55759C7.21351 9.60937 7.21351 9.6621 7.21162 9.71482C7.20786 9.7666 7.20786 9.81933 7.20629 9.87268C7.20284 9.92509 7.20221 9.97656 7.20095 10.0299C7.19719 10.0823 7.19656 10.1338 7.19436 10.1868C7.19154 10.2396 7.18966 10.292 7.18903 10.3447C7.18589 10.3958 7.18401 10.4479 7.18306 10.5016C7.18024 10.5534 7.17773 10.6049 7.17647 10.6585C7.17334 10.7103 7.17114 10.7621 7.17051 10.8142C7.16769 10.8653 7.16486 10.9174 7.16486 10.9692C7.16172 11.0219 7.15764 11.075 7.15764 11.1261C7.15545 11.1773 7.15105 11.2284 7.15105 11.2818C7.14854 11.3323 7.14415 11.3829 7.14415 11.4359C7.13944 11.4864 7.13944 11.5391 7.13756 11.5909C7.13285 11.6433 7.13222 11.6964 7.13065 11.7482C7.12595 11.8021 7.12438 11.8527 7.12281 11.907C7.11873 11.9581 7.11685 12.0115 7.11528 12.0633C7.11151 12.1144 7.10931 12.1684 7.10774 12.2202C7.10366 12.2716 7.10115 12.3253 7.0999 12.3768C7.09582 12.4286 7.09299 12.4807 7.09237 12.5324C7.08797 12.5842 7.08483 12.6357 7.08358 12.6875C7.08013 12.7399 7.07605 12.7914 7.07542 12.8425C7.07197 12.8937 7.06695 12.9451 7.06632 12.9975C7.06569 13.0079 7.06506 13.0198 7.06475 13.033C7.06036 13.071 7.05973 13.109 7.05816 13.1454C7.05816 13.1466 7.05753 13.1491 7.05753 13.1513C7.0569 13.1639 7.05628 13.1767 7.05596 13.1899C7.05031 13.242 7.04937 13.2938 7.04655 13.3478C7.04121 13.3983 7.03933 13.4501 7.03713 13.5028C7.03242 13.554 7.02897 13.6061 7.02709 13.6579C7.02238 13.7106 7.01987 13.7611 7.01799 13.8129C7.01297 13.8656 7.00857 13.9155 7.00669 13.9685C7.0023 14.0197 6.9979 14.0696 6.99665 14.1223C6.99257 14.1722 6.9866 14.224 6.98535 14.2745C6.98315 14.2962 6.9819 14.3182 6.98064 14.3398C6.97405 14.391 6.97217 14.4434 6.96872 14.4948C6.96244 14.5466 6.96024 14.5994 6.95805 14.6511C6.95145 14.701 6.948 14.7531 6.94581 14.8037C6.94016 14.8554 6.93639 14.9066 6.93388 14.9578C6.92729 15.0083 6.92258 15.0598 6.92133 15.1103C6.91599 15.1608 6.90971 15.2101 6.90752 15.2619C6.90438 15.291 6.90187 15.3193 6.89967 15.3472C6.89277 15.3984 6.88963 15.4499 6.88712 15.5016C6.88084 15.5522 6.87645 15.6027 6.87331 15.6532C6.86672 15.7053 6.86264 15.7552 6.85981 15.8048C6.85322 15.8556 6.84789 15.9055 6.84506 15.9561C6.83847 16.006 6.83251 16.0549 6.82969 16.1051C6.82498 16.1387 6.82121 16.1739 6.81776 16.2078C6.81086 16.2583 6.80678 16.3076 6.8027 16.3581C6.79516 16.4086 6.79077 16.4566 6.78638 16.5075C6.77916 16.5567 6.77382 16.6063 6.76912 16.6569C6.76221 16.7052 6.75562 16.7548 6.75154 16.8041C6.74432 16.8524 6.7371 16.902 6.73208 16.95C6.72675 16.988 6.72298 17.0259 6.71953 17.0623C6.71733 17.0746 6.71419 17.0837 6.71263 17.0969C6.70698 17.1336 6.70509 17.1712 6.70133 17.2092C6.69725 17.2327 6.69129 17.2547 6.68783 17.2789C6.68501 17.304 6.68438 17.3288 6.68187 17.3536C6.67528 17.3897 6.66838 17.4258 6.66367 17.4622C6.66178 17.4747 6.66241 17.486 6.66147 17.4989C6.65362 17.5378 6.64641 17.5805 6.64233 17.6228C6.63291 17.6693 6.62758 17.7183 6.62224 17.7666C6.61345 17.813 6.60686 17.8595 6.60121 17.9091C6.5918 17.9539 6.58395 18.0007 6.5783 18.0478C6.56952 18.0949 6.55979 18.1404 6.55414 18.1868C6.54504 18.2311 6.53813 18.2797 6.5328 18.3262C6.52276 18.3704 6.51522 18.4187 6.50926 18.4636C6.49859 18.5091 6.49043 18.5531 6.48384 18.5998C6.47254 18.6478 6.46281 18.6971 6.45591 18.747C6.44587 18.7913 6.43896 18.8358 6.43174 18.882C6.4217 18.9268 6.41291 18.9714 6.40632 19.0166C6.39502 19.059 6.38561 19.1026 6.37839 19.1475C6.36521 19.1989 6.35548 19.2507 6.34701 19.3037C6.33634 19.3449 6.32818 19.3891 6.32002 19.4327C6.30872 19.476 6.29899 19.5181 6.29052 19.5614C6.27702 19.6119 6.26478 19.6631 6.25474 19.7158C6.24376 19.7591 6.23434 19.8018 6.22618 19.8467C6.21363 19.8881 6.20358 19.9302 6.19574 19.9725C6.18099 20.0205 6.16781 20.0695 6.15871 20.1207C6.14458 20.1649 6.13454 20.2107 6.1245 20.2569C6.11226 20.2967 6.10096 20.3378 6.09217 20.3799C6.0768 20.4257 6.0633 20.4753 6.05169 20.5249C6.03757 20.5698 6.02595 20.615 6.01528 20.6617C6.00242 20.7006 5.99049 20.7421 5.98076 20.7829C5.96476 20.8293 5.95032 20.8783 5.93777 20.9275C5.92239 20.9718 5.90952 21.0167 5.89759 21.0628C5.8841 21.103 5.87155 21.1431 5.86056 21.1821C5.84299 21.2304 5.8273 21.2775 5.81412 21.327C5.79842 21.3713 5.7843 21.4152 5.77112 21.462C5.75668 21.5015 5.74413 21.543 5.73189 21.5822C5.71337 21.629 5.69705 21.6751 5.68293 21.7222C5.66567 21.767 5.65092 21.8129 5.63711 21.859C5.62142 21.8992 5.6073 21.9393 5.59443 21.9801C5.57591 22.0244 5.55959 22.0693 5.54579 22.1141C5.52633 22.1609 5.51032 22.2083 5.49494 22.2554C5.478 22.2962 5.46262 22.337 5.44912 22.379C5.43186 22.4186 5.41429 22.4612 5.40017 22.502C5.37851 22.5519 5.36062 22.5996 5.34368 22.6508C5.32547 22.6916 5.30947 22.7337 5.29503 22.776C5.2762 22.8162 5.25863 22.8586 5.24388 22.9034C5.22379 22.9458 5.20402 22.9901 5.18739 23.0359C5.16699 23.0792 5.15035 23.1238 5.13403 23.1686C5.11395 23.2107 5.097 23.2537 5.08131 23.296C5.06122 23.34 5.04177 23.382 5.02513 23.426C5.00379 23.4687 4.98465 23.512 4.96739 23.5556C4.94699 23.5989 4.92973 23.6428 4.91247 23.6868C4.89113 23.7291 4.87324 23.7728 4.85472 23.8176C4.83338 23.8603 4.81298 23.9036 4.79478 23.9473C4.77563 23.9859 4.75649 24.0267 4.74017 24.0646C4.74017 24.0656 4.74017 24.0656 4.73986 24.0656C4.73797 24.0703 4.73546 24.0759 4.73358 24.0806C4.71444 24.1186 4.69717 24.1575 4.68086 24.1968C4.65857 24.2398 4.63943 24.2843 4.61966 24.3295C4.59737 24.3738 4.57603 24.4171 4.55752 24.4619C4.53461 24.5071 4.51201 24.5511 4.49287 24.5966C4.47686 24.6299 4.45992 24.6631 4.44454 24.6976C4.44265 24.7011 4.44077 24.7036 4.4392 24.7074C4.41629 24.7469 4.39934 24.7896 4.3802 24.8313C4.3733 24.8442 4.36514 24.8574 4.35823 24.8699C4.34223 24.9016 4.32999 24.9343 4.31524 24.9641C4.30268 24.987 4.28887 25.0099 4.27695 25.0331C4.26691 25.0548 4.25843 25.0771 4.24933 25.0981C4.23144 25.1317 4.21293 25.1618 4.19629 25.1966C4.19096 25.2089 4.18719 25.2214 4.18186 25.2327C4.15926 25.2754 4.13604 25.3162 4.11595 25.3592C4.11501 25.3639 4.11438 25.3658 4.11313 25.3699C4.09775 25.3962 4.08363 25.4257 4.07013 25.4546C4.04534 25.497 4.02431 25.5422 4.00266 25.5889C3.97786 25.6322 3.95495 25.6781 3.93267 25.7236C3.90788 25.7684 3.88434 25.813 3.86269 25.8598C3.83789 25.904 3.81373 25.9492 3.79145 25.9966C3.76665 26.0409 3.74217 26.0842 3.71926 26.1316C3.70671 26.1545 3.69384 26.1786 3.68223 26.2019C3.65681 26.2448 3.63453 26.2919 3.6113 26.3362C3.58588 26.3811 3.56266 26.4262 3.53944 26.4724C3.51401 26.5169 3.48985 26.5615 3.46725 26.6076C3.44089 26.6525 3.41673 26.6983 3.39382 26.7438C3.36777 26.7894 3.34266 26.8333 3.31975 26.8807C3.29402 26.9262 3.26734 26.9707 3.24443 27.0169C3.23502 27.0348 3.22497 27.0517 3.21619 27.0687C3.21148 27.0778 3.20771 27.084 3.20269 27.0925C3.19202 27.1126 3.17915 27.1333 3.16911 27.1553C3.16064 27.1707 3.15216 27.1864 3.14275 27.2027C3.11639 27.2469 3.09285 27.2934 3.06868 27.3373C3.04263 27.3816 3.01878 27.4286 2.99462 27.4741C2.96826 27.5184 2.94346 27.5623 2.9193 27.6097C2.89231 27.6546 2.86751 27.6979 2.84335 27.7453C2.81636 27.7902 2.79094 27.8347 2.76709 27.8809C2.74041 27.9261 2.71405 27.97 2.68988 28.0177C2.66384 28.0632 2.63716 28.1075 2.61299 28.1545C2.58663 28.2004 2.55901 28.2443 2.53548 28.2923C2.53108 28.2992 2.52669 28.3074 2.52292 28.314C2.49499 28.3573 2.47114 28.4037 2.44572 28.4492C2.41936 28.4922 2.39519 28.538 2.36946 28.5835C2.34184 28.6269 2.31705 28.6721 2.29288 28.7188C2.26464 28.7637 2.24047 28.807 2.21474 28.8531C2.18743 28.899 2.1617 28.9438 2.13628 28.99C2.10992 29.0336 2.08355 29.0785 2.05876 29.1255C2.03177 29.1701 2.00447 29.2153 1.97936 29.2617C1.95237 29.3069 1.92538 29.3509 1.90059 29.397C1.8736 29.4413 1.84661 29.4865 1.82213 29.5338C1.79545 29.5793 1.76721 29.6233 1.74273 29.6707C1.71668 29.7143 1.69 29.7551 1.66615 29.7993C1.63979 29.8395 1.61751 29.8844 1.59271 29.9277C1.56416 29.971 1.5403 30.0162 1.51363 30.0611C1.48601 30.1044 1.4609 30.1502 1.43517 30.196C1.40755 30.2393 1.38244 30.2852 1.3564 30.33C1.32878 30.3743 1.30273 30.4185 1.27637 30.465C1.24875 30.5102 1.22364 30.5541 1.19665 30.6003C1.16966 30.6445 1.14267 30.6884 1.11694 30.7346C1.08995 30.7791 1.06359 30.8243 1.03691 30.8692C1.00992 30.9135 0.982305 30.958 0.957198 31.0042C0.929581 31.049 0.902277 31.0933 0.876542 31.1394C0.849553 31.1852 0.821935 31.2282 0.796828 31.275C0.769838 31.3193 0.741279 31.3632 0.716172 31.4106C0.689183 31.4555 0.66031 31.4985 0.635831 31.5455C0.607899 31.5907 0.579654 31.6347 0.553919 31.682C0.203679 32.2724 0 32.9597 0 33.6966C0 35.8871 1.77662 37.6631 3.96688 37.6631C6.15776 37.6631 7.93501 35.8868 7.93501 33.6966C7.93501 33.6887 7.93282 33.6799 7.93282 33.6714C7.9347 33.6382 7.93941 33.6043 7.93941 33.5691C7.93941 33.5578 7.93815 33.5487 7.93753 33.5393C7.93878 33.5061 7.94349 33.4744 7.94349 33.4414C7.94412 33.4289 7.94223 33.4176 7.94223 33.4047C7.94349 33.3736 7.94757 33.3441 7.94757 33.313C7.9482 33.3002 7.94663 33.2857 7.94663 33.2716C7.94757 33.244 7.95196 33.2145 7.95322 33.1856C7.95322 33.1706 7.95102 33.1533 7.95102 33.1392C7.95196 33.1109 7.95667 33.0861 7.9573 33.0592C7.95792 33.0397 7.95573 33.0224 7.95604 33.0052C7.9573 32.9801 7.96075 32.9546 7.96169 32.9317C7.96232 32.9113 7.96044 32.8922 7.96044 32.8712C7.96169 32.8483 7.96514 32.8272 7.9664 32.8034C7.96703 32.7814 7.96483 32.7594 7.96514 32.7378C7.9664 32.7177 7.96985 32.697 7.97048 32.6763C7.97173 32.6524 7.96954 32.6283 7.96985 32.6041C7.97111 32.5849 7.97487 32.568 7.97613 32.5489C7.97707 32.5219 7.97487 32.4955 7.9755 32.4698C7.97675 32.4535 7.97895 32.4381 7.98021 32.4214C7.98146 32.3935 7.97958 32.3646 7.98021 32.3354C7.98083 32.3223 7.98366 32.3085 7.98429 32.2947C7.98617 32.2636 7.98429 32.2341 7.98491 32.2027C7.98554 32.1901 7.98805 32.1798 7.98868 32.1685C7.99151 32.1343 7.98868 32.102 7.98994 32.0674C7.99056 32.0583 7.99339 32.0489 7.99402 32.0398C7.99621 32.0031 7.99402 31.9686 7.99558 31.9337C7.99621 31.9262 7.99747 31.9199 7.99778 31.9124C8.00092 31.8744 7.99935 31.8374 8.00029 31.8C8.00092 31.7935 8.00186 31.7891 8.00186 31.785C8.00531 31.7442 8.00374 31.7059 8.00531 31.6648C8.00531 31.6626 8.00594 31.6598 8.00626 31.6585C8.01065 31.6102 8.00908 31.5637 8.01128 31.5167C8.01818 31.4322 8.02006 31.3491 8.02101 31.2656C8.0254 31.1984 8.03105 31.1294 8.03105 31.0619C8.03262 31.0186 8.03701 30.974 8.03701 30.9304C8.03921 30.8871 8.04266 30.8432 8.04329 30.7992C8.04486 30.755 8.04894 30.7117 8.04956 30.6668C8.05176 30.6235 8.05521 30.5789 8.05584 30.535C8.05804 30.4901 8.06118 30.4474 8.06243 30.4029C8.06463 30.3592 8.06777 30.3147 8.06871 30.2704C8.07185 30.2258 8.07436 30.1825 8.0753 30.1364C8.07875 30.0931 8.08063 30.0492 8.08283 30.0055C8.0866 29.9616 8.08848 29.9158 8.09005 29.8709C8.0935 29.8267 8.09507 29.7827 8.09664 29.7388C8.10135 29.6939 8.10229 29.6493 8.10417 29.6045C8.10888 29.5599 8.10951 29.5147 8.11233 29.4698C8.11641 29.4275 8.11767 29.3832 8.11986 29.3383C8.12583 29.2771 8.1274 29.2181 8.13053 29.1597C8.13838 29.0816 8.14466 29.0047 8.14528 28.9278C8.14874 28.8842 8.15344 28.8418 8.15407 28.7982C8.15784 28.7543 8.1616 28.711 8.16286 28.6661C8.16631 28.6228 8.17039 28.5788 8.17165 28.5346C8.17573 28.4913 8.17918 28.4467 8.18075 28.4034C8.18514 28.3592 8.18891 28.3152 8.19079 28.2719C8.19518 28.227 8.19801 28.184 8.20021 28.1385C8.20491 28.0955 8.20868 28.0516 8.21025 28.0077C8.21558 27.9628 8.21778 27.9195 8.22092 27.8743C8.22625 27.8307 8.22845 27.7873 8.23222 27.7418C8.23818 27.6973 8.23975 27.6527 8.24257 27.6091C8.25262 27.54 8.25732 27.4701 8.26109 27.4001C8.26611 27.347 8.2727 27.2931 8.2749 27.2413C8.27898 27.1977 8.28431 27.1531 8.28682 27.1091C8.29153 27.0655 8.29624 27.0232 8.29875 26.9783C8.30408 26.934 8.30942 26.891 8.31162 26.8474C8.31789 26.8035 8.32166 26.7602 8.3248 26.7153C8.33076 26.672 8.33484 26.628 8.33704 26.5844C8.34363 26.5392 8.34834 26.4972 8.35179 26.4517C8.35775 26.4084 8.36183 26.3638 8.36622 26.3202C8.37595 26.2587 8.38192 26.1971 8.38662 26.1363C8.39416 26.0829 8.40043 26.0299 8.40514 25.9771C8.41079 25.9332 8.41675 25.8899 8.41958 25.8466C8.42585 25.8017 8.43213 25.759 8.4359 25.7151C8.44249 25.6715 8.44782 25.6285 8.4519 25.5855C8.45881 25.5415 8.46414 25.4963 8.46822 25.4527C8.47638 25.41 8.48172 25.3674 8.4858 25.3225C8.49458 25.2779 8.49866 25.2359 8.50494 25.1897C8.51718 25.1254 8.52722 25.0592 8.53256 24.9955C8.53946 24.9518 8.54699 24.9082 8.55139 24.8646C8.55892 24.8219 8.56676 24.7792 8.57116 24.7347C8.57932 24.691 8.58654 24.6487 8.59124 24.6044C8.60066 24.5614 8.60694 24.5178 8.61227 24.4742C8.622 24.4303 8.62859 24.3882 8.63455 24.343C8.64648 24.2922 8.65464 24.2391 8.66186 24.187C8.67378 24.1352 8.68289 24.0825 8.68948 24.0289C8.69889 23.9859 8.70705 23.9438 8.71301 23.8999C8.72305 23.8566 8.73122 23.8139 8.73781 23.7699C8.74785 23.7269 8.75601 23.6833 8.7626 23.6403C8.77264 23.5976 8.78112 23.555 8.78896 23.5104C8.80246 23.4577 8.81375 23.4065 8.82191 23.3519C8.83415 23.3039 8.84545 23.2553 8.85298 23.206C8.86428 23.163 8.8737 23.12 8.88123 23.0773C8.89315 23.0324 8.90226 22.9913 8.91073 22.9477C8.92203 22.905 8.93238 22.8626 8.94054 22.8196C8.9531 22.7763 8.96314 22.7343 8.97255 22.6894C8.9895 22.6342 9.00394 22.5783 9.01429 22.5193C9.02685 22.4779 9.03783 22.4343 9.04693 22.3931C9.0598 22.3511 9.0711 22.3068 9.08114 22.2651C9.09369 22.2218 9.10531 22.1794 9.11598 22.1371C9.12947 22.0956 9.14077 22.052 9.15175 22.0096C9.16996 21.9566 9.18502 21.9014 9.19757 21.848C9.21233 21.805 9.22582 21.7601 9.23586 21.7153C9.25093 21.6729 9.26379 21.6302 9.27446 21.5891C9.28859 21.5464 9.30208 21.504 9.31338 21.4629C9.32876 21.4221 9.341 21.3788 9.35324 21.3377C9.36893 21.2941 9.38305 21.2502 9.39529 21.2047C9.416 21.1529 9.43389 21.0989 9.4477 21.0449C9.46339 21.0035 9.47752 20.9608 9.49038 20.9197C9.50639 20.8783 9.52051 20.8375 9.53306 20.7954C9.54938 20.754 9.56413 20.7116 9.57763 20.6699C9.59489 20.6303 9.60839 20.5883 9.62251 20.5475C9.64542 20.491 9.66676 20.437 9.68433 20.378C9.70065 20.3385 9.71697 20.2977 9.73015 20.2544C9.7471 20.2154 9.76373 20.1734 9.77786 20.1313C9.79543 20.0912 9.8105 20.0504 9.82556 20.0083C9.84376 19.9694 9.85883 19.928 9.87452 19.8872C9.89272 19.8464 9.90904 19.8049 9.92379 19.7635C9.94984 19.7083 9.97369 19.6509 9.99409 19.5922C10.012 19.5532 10.0296 19.5118 10.044 19.4698C10.0619 19.4302 10.0801 19.3901 10.0955 19.3496C10.1143 19.31 10.1319 19.268 10.1472 19.2278C10.1667 19.1883 10.1836 19.1481 10.1997 19.1073C10.2188 19.0681 10.2361 19.0279 10.2521 18.9865C10.2762 18.9394 10.2976 18.8898 10.318 18.8393C10.3428 18.79 10.3663 18.7395 10.3867 18.688C10.4062 18.6481 10.4244 18.608 10.4416 18.5672C10.4611 18.5283 10.4793 18.489 10.4969 18.4476C10.5163 18.4093 10.5345 18.3698 10.5521 18.3293C10.5719 18.2891 10.591 18.2489 10.608 18.21C10.6287 18.1714 10.6466 18.1319 10.6644 18.092C10.6852 18.0537 10.7027 18.0142 10.7209 17.9743C10.7555 17.9131 10.7862 17.8482 10.8138 17.7826C10.8339 17.7449 10.8537 17.7048 10.8722 17.6633C10.8923 17.6254 10.9127 17.5852 10.9312 17.546C10.9516 17.5077 10.9717 17.4678 10.9905 17.4283C11.0109 17.39 11.0304 17.3495 11.0492 17.31C11.0705 17.2717 11.09 17.2318 11.1091 17.1923C11.1305 17.1555 11.1493 17.1147 11.1685 17.0761C11.1898 17.0385 11.2083 16.9983 11.2278 16.9603C11.2526 16.9161 11.2749 16.8718 11.2968 16.8257C11.3326 16.7651 11.3665 16.6989 11.3972 16.633C11.4186 16.5938 11.4396 16.5561 11.4584 16.5147C11.4801 16.4767 11.5018 16.4378 11.5203 16.3973C11.5413 16.3597 11.563 16.3217 11.5818 16.2809C11.6038 16.2423 11.6248 16.2053 11.6442 16.1645C11.6659 16.1277 11.6866 16.0885 11.7067 16.0483C11.7283 16.01 11.7491 15.9714 11.7688 15.9319C11.7908 15.8946 11.8103 15.856 11.8307 15.8164C11.8529 15.7797 11.8733 15.7408 11.8937 15.7028C11.916 15.6655 11.9361 15.6259 11.9559 15.5873C11.9825 15.5437 12.0055 15.4979 12.0293 15.4524C12.0714 15.3833 12.1112 15.3124 12.147 15.2386C12.169 15.2007 12.1925 15.1652 12.2123 15.1257C12.2132 15.1216 12.2138 15.1191 12.216 15.1159C12.2349 15.0827 12.255 15.0522 12.2722 15.0171C12.275 15.0127 12.2772 15.0045 12.281 14.9989C12.2973 14.9687 12.3174 14.9411 12.3334 14.911C12.3384 14.9019 12.3413 14.8919 12.346 14.8834C12.3607 14.8558 12.3789 14.8303 12.3937 14.804C12.4003 14.7921 12.405 14.7789 12.4116 14.7666C12.4257 14.7428 12.4407 14.7208 12.4546 14.6954C12.4627 14.6816 12.4684 14.6656 12.4762 14.6505C12.4888 14.6298 12.5032 14.6103 12.5154 14.589C12.5249 14.5724 12.5311 14.5529 12.5412 14.5356C12.5525 14.5178 12.5647 14.4989 12.5754 14.4817C12.5873 14.4613 12.5955 14.4409 12.6065 14.4198C12.6159 14.4048 12.6272 14.3903 12.636 14.3747C12.6495 14.3517 12.6595 14.3279 12.6717 14.3047C12.6796 14.2921 12.6887 14.2805 12.6965 14.2679C12.7113 14.2422 12.7229 14.2155 12.737 14.1911C12.7436 14.1794 12.7511 14.1697 12.7577 14.16C12.7747 14.1324 12.7869 14.1029 12.8032 14.0759C12.8079 14.0668 12.8142 14.0599 12.8189 14.0511C12.8371 14.0206 12.8512 13.9911 12.8679 13.961C12.872 13.9551 12.8757 13.9497 12.8792 13.9444C12.8989 13.9127 12.9156 13.8794 12.9338 13.8471C12.9354 13.8424 12.9382 13.8405 12.9404 13.8367C12.962 13.8032 12.9793 13.7668 12.9994 13.7319C13 13.7307 13.0006 13.7307 13.0013 13.7294C13.0326 13.6648 13.065 13.6017 13.0992 13.5398Z" fill="url(#paint0_linear_62_18)"/>
<path d="M27.7854 30.1814C27.7157 30.0847 27.6429 29.9918 27.5648 29.9002C27.4948 29.8048 27.4195 29.7106 27.341 29.6196C27.2716 29.5248 27.1982 29.4319 27.1216 29.3428C27.0541 29.2474 26.982 29.1573 26.906 29.0679C26.8389 28.9741 26.7686 28.8834 26.6936 28.7955C26.628 28.702 26.5589 28.6125 26.4855 28.5259C26.418 28.4277 26.3449 28.3323 26.2674 28.2428C26.1955 28.1371 26.1186 28.0379 26.0351 27.9418C25.9658 27.8427 25.8926 27.746 25.8139 27.6534C25.7511 27.5627 25.6833 27.4742 25.6121 27.3904C25.5515 27.3026 25.4856 27.2144 25.4162 27.1322C25.3488 27.0286 25.2728 26.931 25.1934 26.8375C25.125 26.7323 25.0497 26.6325 24.9693 26.5371C24.9034 26.4379 24.8334 26.3413 24.7562 26.2512C24.6998 26.1652 24.6382 26.0817 24.5733 26.0023C24.5064 25.8963 24.4311 25.7977 24.352 25.7026C24.2864 25.5975 24.2146 25.499 24.1358 25.4035C24.0768 25.3116 24.0147 25.2215 23.9462 25.1393C23.8835 25.036 23.8129 24.9381 23.7382 24.8481C23.6757 24.7429 23.6067 24.6444 23.5304 24.5518C23.4723 24.4539 23.4099 24.3622 23.3412 24.2766C23.2806 24.1721 23.2122 24.0745 23.1381 23.9816C23.0794 23.8783 23.0157 23.7804 22.9438 23.6884C22.887 23.5886 22.823 23.4923 22.753 23.4044C22.7402 23.3784 22.7276 23.352 22.7125 23.3285C22.6683 23.2535 22.6197 23.1838 22.5688 23.116C22.5374 23.0579 22.5054 23.0005 22.469 22.9437C22.4411 22.9016 22.4106 22.8621 22.3799 22.8213C22.3341 22.7316 22.2842 22.644 22.2248 22.5618C22.2176 22.5508 22.2095 22.5433 22.2029 22.5341C22.1524 22.4296 22.0908 22.3305 22.0212 22.2354C21.9719 22.1309 21.9129 22.0289 21.8445 21.9322C21.7987 21.8337 21.7441 21.7383 21.6803 21.6457C21.6326 21.5352 21.5743 21.4291 21.504 21.3275C21.4603 21.2239 21.4064 21.1241 21.3442 21.0287C21.3022 20.9248 21.2507 20.8256 21.1898 20.729C21.1487 20.6216 21.0979 20.5193 21.037 20.4202C20.9971 20.3109 20.9463 20.2045 20.8851 20.1047C20.8487 19.9974 20.8007 19.8951 20.7442 19.7972C20.7087 19.6889 20.6641 19.5857 20.6089 19.4871C20.576 19.3788 20.5326 19.2756 20.4793 19.1758C20.446 19.0616 20.4024 18.9501 20.3484 18.8456C20.317 18.7358 20.2772 18.6297 20.2267 18.5284C20.1984 18.4185 20.1595 18.3124 20.1124 18.2114C20.0854 18.1003 20.0484 17.9933 20.002 17.8903C19.9756 17.7714 19.9373 17.6571 19.8887 17.547C19.8639 17.4365 19.8309 17.3311 19.7885 17.2303C19.765 17.1148 19.7302 17.0022 19.6881 16.8958C19.6652 16.7784 19.6338 16.6654 19.5915 16.5568C19.5698 16.4448 19.539 16.3353 19.4995 16.2305C19.4785 16.1134 19.4496 15.9992 19.4107 15.8893C19.4091 15.878 19.4085 15.8677 19.406 15.8545C19.3859 15.7522 19.3573 15.6552 19.3247 15.5588C19.3168 15.5124 19.3106 15.4656 19.2999 15.4189C19.2845 15.3533 19.2651 15.2908 19.2453 15.2284C19.2327 15.1461 19.2158 15.0649 19.1932 14.9836C19.1844 14.95 19.1722 14.9199 19.1615 14.8869C19.1442 14.7746 19.1223 14.6606 19.0868 14.5483C19.0862 14.5448 19.0846 14.5404 19.083 14.5367C19.0667 14.4293 19.0419 14.323 19.0109 14.2163C18.9942 14.0967 18.9685 13.9784 18.9343 13.8613C18.9186 13.7458 18.8954 13.6297 18.8624 13.5145C18.8477 13.4075 18.8254 13.3008 18.7962 13.1941C18.7814 13.0723 18.7563 12.9518 18.7243 12.8326C18.708 12.7095 18.6867 12.5868 18.6537 12.4635C18.6396 12.3637 18.6204 12.2636 18.5957 12.1631C18.5822 12.0455 18.5593 11.9284 18.5307 11.8123C18.5163 11.6886 18.4937 11.5659 18.4632 11.4423C18.4485 11.3211 18.4278 11.2 18.3979 11.0788C18.3844 10.9715 18.3653 10.8645 18.3405 10.7587C18.3276 10.6486 18.3079 10.5394 18.2843 10.4305C18.2708 10.3109 18.2501 10.1932 18.2238 10.0749C18.2103 9.9506 18.1886 9.8257 18.1613 9.70142C18.1469 9.5831 18.1268 9.46447 18.1014 9.34616C18.0872 9.23412 18.0681 9.12145 18.0439 9.00941C18.0311 8.89643 18.0119 8.78188 17.9874 8.66827C17.9749 8.55278 17.9561 8.43698 17.9328 8.32243C17.9197 8.20568 17.9021 8.08925 17.8785 7.97438C17.8654 7.85607 17.8487 7.73775 17.8252 7.62132C17.8117 7.50175 17.791 7.38531 17.7681 7.267C17.7546 7.15088 17.7351 7.03507 17.7125 6.92021C17.6993 6.80284 17.6799 6.68703 17.6576 6.57028C17.6435 6.45197 17.625 6.33428 17.603 6.21722C17.5911 6.11491 17.5769 6.01291 17.5581 5.9106C17.5446 5.78067 17.5252 5.65106 17.501 5.5205C17.4881 5.40156 17.4693 5.28324 17.4483 5.16399C17.4348 5.04504 17.4169 4.9261 17.3949 4.80716C17.3811 4.68664 17.3648 4.56644 17.3425 4.44813C17.2179 3.35912 16.7393 2.30589 15.9045 1.4714C13.943 -0.490385 10.762 -0.490385 8.80023 1.4714C6.92694 3.34437 6.84409 6.32549 8.54665 8.29826C8.61914 8.39492 8.69509 8.49001 8.77449 8.58134C8.84699 8.67832 8.92231 8.77435 9.00328 8.86568C9.07295 8.95983 9.14544 9.05178 9.22328 9.14122C9.29263 9.23412 9.36607 9.32607 9.44327 9.41457C9.50384 9.49617 9.57006 9.57306 9.63597 9.65183C9.70313 9.74441 9.7772 9.83511 9.85252 9.92424C9.92846 10.0303 10.0119 10.1339 10.0982 10.2349C10.1717 10.3379 10.2498 10.4392 10.3346 10.5365C10.3393 10.5422 10.3459 10.5475 10.3506 10.5532C10.4077 10.6301 10.4636 10.7082 10.5263 10.7816C10.5376 10.7967 10.5517 10.8077 10.5627 10.8196C10.6133 10.8896 10.6622 10.9596 10.7174 11.028C10.7363 11.0493 10.7564 11.0688 10.7755 11.0908C10.8204 11.1517 10.8612 11.2138 10.9095 11.2737C10.9349 11.3029 10.9626 11.3305 10.9883 11.3604C11.0253 11.4121 11.0602 11.4671 11.1013 11.5182C11.1333 11.5578 11.1681 11.5938 11.2011 11.6324C11.2325 11.6761 11.2601 11.7203 11.2924 11.7646C11.3313 11.8138 11.3746 11.86 11.4148 11.9064C11.439 11.94 11.4594 11.9758 11.4848 12.0103C11.5303 12.0699 11.5802 12.1255 11.6282 12.182C11.6445 12.2061 11.6586 12.2319 11.6765 12.2542C11.7283 12.3263 11.7861 12.3926 11.8422 12.4591C11.8516 12.4723 11.8589 12.4867 11.8683 12.4993C11.927 12.5834 11.9907 12.6615 12.0553 12.7359C12.0566 12.7412 12.0575 12.7434 12.0594 12.7456C12.1316 12.8508 12.2094 12.9496 12.2907 13.0444C12.3563 13.1404 12.4272 13.2311 12.501 13.3171C12.5675 13.4157 12.6375 13.507 12.7116 13.5952C12.7781 13.6931 12.8484 13.7857 12.9221 13.8745C12.988 13.973 13.0574 14.0678 13.1321 14.1557C13.1967 14.2555 13.2667 14.3509 13.3414 14.4397C13.4045 14.5376 13.4732 14.6308 13.546 14.7196C13.6098 14.8201 13.6801 14.9127 13.7541 15.0027C13.8178 15.1019 13.8881 15.1973 13.9625 15.2867C14.025 15.3872 14.0937 15.4851 14.169 15.5752C14.2315 15.6775 14.2986 15.7763 14.3736 15.867C14.4314 15.9612 14.4941 16.0522 14.5619 16.1369C14.6225 16.2389 14.6909 16.3334 14.7637 16.4253C14.8243 16.5308 14.8918 16.6284 14.9658 16.7216C15.0242 16.8236 15.0876 16.9215 15.1601 17.0116C15.2138 17.1092 15.2743 17.1996 15.3409 17.2868C15.3974 17.3942 15.4645 17.4921 15.5367 17.5865C15.5919 17.6923 15.655 17.7937 15.7266 17.8875C15.7774 17.986 15.8348 18.0793 15.9001 18.1678C15.9525 18.2748 16.0134 18.3758 16.0831 18.4687C16.1336 18.5757 16.1923 18.6771 16.2598 18.7716C16.3062 18.8723 16.3608 18.9674 16.4227 19.0569C16.4713 19.1686 16.5309 19.275 16.5987 19.3763C16.6427 19.478 16.6948 19.5756 16.756 19.6682C16.7993 19.7762 16.852 19.8772 16.9135 19.9751C16.9549 20.0843 17.007 20.1863 17.0682 20.2861C17.1059 20.39 17.1542 20.4889 17.2107 20.5859C17.2484 20.6973 17.2995 20.8059 17.3595 20.9097C17.3943 21.0155 17.4376 21.1153 17.4919 21.2132C17.5264 21.3275 17.5722 21.4389 17.6294 21.544C17.6604 21.6498 17.7012 21.753 17.7518 21.8509C17.7822 21.962 17.8236 22.0725 17.8748 22.177C17.904 22.2875 17.9423 22.3951 17.9918 22.499C18.0182 22.6079 18.0546 22.7133 18.1014 22.8163C18.1274 22.9327 18.1648 23.0476 18.2137 23.1593C18.2379 23.2648 18.2702 23.3693 18.3123 23.4722C18.3358 23.5864 18.37 23.6985 18.4143 23.808C18.4365 23.9216 18.4676 24.0355 18.5106 24.1457C18.531 24.2537 18.5596 24.3588 18.5975 24.4624C18.6173 24.5794 18.6493 24.6949 18.6898 24.8076C18.7099 24.924 18.7369 25.0408 18.7767 25.1553C18.7953 25.2623 18.821 25.3681 18.8552 25.4738C18.8728 25.5875 18.9016 25.7014 18.9377 25.8137C18.9553 25.9308 18.9817 26.0469 19.0175 26.1627C19.0338 26.2788 19.0573 26.3946 19.0928 26.5101C19.1078 26.6175 19.1317 26.7232 19.1612 26.8312C19.1769 26.9457 19.2039 27.0631 19.2365 27.1783C19.2522 27.295 19.2764 27.4108 19.3087 27.5263C19.3231 27.6406 19.3457 27.7564 19.3762 27.8715C19.3915 27.9864 19.4116 28.1013 19.4414 28.2165C19.4549 28.3219 19.4731 28.4264 19.4986 28.5322C19.5017 28.5425 19.5055 28.5516 19.508 28.561C19.5199 28.6499 19.5334 28.7412 19.5529 28.8297C19.5591 28.8573 19.5673 28.8815 19.5742 28.9078C19.5842 28.9813 19.5921 29.0547 19.6071 29.1272C19.6153 29.1708 19.6288 29.2126 19.6392 29.2556C19.6454 29.3114 19.6511 29.3682 19.6608 29.4257C19.6712 29.4853 19.6872 29.5418 19.7007 29.5998C19.7057 29.6406 19.7076 29.6827 19.7142 29.7241C19.7264 29.7985 19.744 29.8701 19.7612 29.9429C19.7641 29.9692 19.7647 29.995 19.7681 30.0213C19.781 30.1104 19.8002 30.1974 19.8196 30.284C19.8209 30.2953 19.8202 30.3079 19.8218 30.3201C19.8366 30.4365 19.8579 30.5526 19.8836 30.6666C19.8978 30.7824 19.9178 30.8985 19.943 31.0112C19.9577 31.1282 19.9768 31.2443 20.0016 31.357C20.0158 31.4731 20.0346 31.5889 20.0594 31.7007C20.0726 31.8155 20.0914 31.9301 20.1156 32.044C20.1291 32.1595 20.1473 32.2731 20.1702 32.3854C20.183 32.5 20.2016 32.6139 20.2245 32.7253C20.2361 32.8339 20.253 32.9409 20.2737 33.0457C20.2866 33.176 20.3061 33.3022 20.3299 33.4277C20.5656 35.575 22.3971 37.2361 24.6031 37.2132C26.9534 37.1903 28.8399 35.2655 28.8163 32.9161C28.8057 31.8689 28.4181 30.9154 27.7854 30.1814Z" fill="url(#paint1_linear_62_18)"/>
<path d="M38.764 18.1165C38.8057 18.0829 38.8469 18.0493 38.8877 18.0157C38.9294 17.9818 38.9715 17.9483 39.0119 17.9141C39.0537 17.8795 39.0954 17.8463 39.1368 17.8124C39.178 17.7797 39.22 17.7458 39.2611 17.7107C39.3038 17.6787 39.3459 17.6448 39.3863 17.6099C39.4287 17.5754 39.4714 17.5425 39.5128 17.5076C39.5539 17.4734 39.5969 17.4411 39.6377 17.4056C39.6807 17.3724 39.7234 17.3388 39.7645 17.304C39.7724 17.2974 39.7802 17.292 39.7871 17.2854C39.8135 17.2654 39.8386 17.2434 39.8643 17.223C39.8734 17.2161 39.8825 17.2092 39.8919 17.2016C39.8985 17.1954 39.9048 17.191 39.9111 17.1844C39.9538 17.1527 39.9955 17.1194 40.0366 17.0852C40.0787 17.0526 40.1204 17.0174 40.1615 16.9835C40.2039 16.9509 40.2459 16.9183 40.2874 16.8831C40.3294 16.8502 40.3715 16.8166 40.4129 16.7811C40.4543 16.7488 40.4973 16.7155 40.5387 16.6813C40.5811 16.648 40.6235 16.6145 40.6652 16.579C40.8598 16.4274 41.0475 16.2642 41.2267 16.0847C43.7151 13.6133 43.7292 9.59208 41.2562 7.10399C38.7832 4.61653 34.7617 4.6021 32.2729 7.07512C31.1808 8.16068 30.5654 9.54438 30.4267 10.9657C30.4219 11.0116 30.4147 11.0586 30.411 11.1048C30.4056 11.1512 30.399 11.197 30.3953 11.2435C30.389 11.2893 30.3827 11.3367 30.378 11.3838C30.3724 11.4293 30.3664 11.4757 30.3623 11.5212C30.3564 11.5696 30.3501 11.616 30.3454 11.6606C30.3391 11.7076 30.3334 11.7547 30.3294 11.8018C30.3225 11.8473 30.3168 11.8947 30.3124 11.9415C30.3052 11.987 30.3005 12.034 30.2952 12.0814C30.2883 12.1279 30.2835 12.1753 30.2782 12.2211C30.2713 12.2669 30.2663 12.314 30.2613 12.361C30.254 12.4081 30.2493 12.4546 30.244 12.5016C30.2371 12.5487 30.2321 12.5958 30.2264 12.6422C30.2151 12.7176 30.2063 12.7932 30.1988 12.8691C30.1907 12.9275 30.1828 12.9859 30.1765 13.0452C30.1706 13.091 30.164 13.1365 30.1593 13.1833C30.1527 13.2291 30.1467 13.274 30.1423 13.3211C30.1351 13.3681 30.1298 13.4143 30.1241 13.4595C30.1175 13.5059 30.1116 13.5524 30.1069 13.5994C30.1 13.6449 30.0946 13.692 30.0887 13.7378C30.0818 13.7837 30.0764 13.8307 30.0701 13.8772C30.0632 13.9236 30.0579 13.9691 30.0519 14.0156C30.0453 14.0636 30.0397 14.1097 30.0334 14.1568C30.0265 14.2026 30.0206 14.2497 30.0149 14.2962C30.0077 14.3432 30.0023 14.3894 29.9958 14.4355C29.9832 14.5124 29.9728 14.5896 29.9653 14.6674C29.9584 14.7126 29.9518 14.7594 29.9465 14.8052C29.9396 14.851 29.933 14.8978 29.927 14.943C29.9198 14.99 29.9132 15.0359 29.9079 15.0817C29.9004 15.1272 29.8941 15.1743 29.8884 15.2195C29.8809 15.2659 29.8749 15.3127 29.869 15.3594C29.8608 15.4053 29.8555 15.4514 29.8489 15.4985C29.8407 15.5465 29.8344 15.5961 29.8279 15.6444C29.8238 15.672 29.8213 15.6984 29.8169 15.726C29.8162 15.7345 29.815 15.7433 29.8137 15.7524C29.8062 15.7963 29.8012 15.8409 29.7949 15.8851C29.7871 15.9284 29.7824 15.9739 29.7754 16.0191C29.767 16.0627 29.7629 16.1067 29.7557 16.1528C29.7438 16.2131 29.7378 16.273 29.7296 16.3339C29.7149 16.4142 29.7033 16.4958 29.6926 16.5771C29.6807 16.6474 29.6672 16.7161 29.66 16.7855C29.654 16.8288 29.6446 16.8712 29.6392 16.9148C29.6327 16.9581 29.6248 17.0008 29.6185 17.0435C29.6123 17.0865 29.6035 17.1295 29.5981 17.1718C29.5906 17.2158 29.5828 17.2581 29.5771 17.3018C29.5686 17.3454 29.5617 17.3877 29.5558 17.4317C29.5479 17.4734 29.5401 17.5177 29.5341 17.56C29.5253 17.604 29.5194 17.6467 29.5118 17.6912C29.5037 17.7349 29.4971 17.7772 29.4895 17.8215C29.4808 17.8645 29.4751 17.9068 29.4673 17.9508C29.4578 17.9944 29.4522 18.0377 29.4444 18.0823C29.4309 18.1422 29.4227 18.2022 29.4127 18.2624C29.3966 18.3393 29.3813 18.4156 29.3703 18.4937C29.3609 18.5442 29.3483 18.5935 29.3414 18.644C29.3333 18.6867 29.3235 18.7281 29.3179 18.7699C29.3085 18.8116 29.2994 18.8537 29.2925 18.8967C29.2837 18.9381 29.2739 18.9817 29.2677 19.0241C29.2576 19.0661 29.2491 19.1079 29.2422 19.1502C29.2316 19.1923 29.2237 19.2356 29.2162 19.2777C29.2062 19.3203 29.1977 19.363 29.1895 19.4051C29.1792 19.4478 29.1713 19.4904 29.1625 19.5331C29.145 19.6003 29.1321 19.6693 29.1192 19.7381C29.1042 19.7989 29.0885 19.8583 29.0778 19.9207C29.0684 19.9609 29.0574 20.0023 29.0495 20.0444C29.0395 20.0852 29.0288 20.1278 29.0213 20.1686C29.0097 20.2101 29.0003 20.2515 28.9912 20.2923C28.9792 20.3344 28.9698 20.3758 28.9614 20.4169C28.9494 20.4589 28.9394 20.5019 28.93 20.5431C28.9165 20.5864 28.9058 20.6316 28.8951 20.6783C28.8735 20.7455 28.8553 20.8155 28.8399 20.8861C28.827 20.9303 28.8135 20.9749 28.8035 21.0201C28.7909 21.059 28.7787 21.1004 28.7699 21.1406C28.7567 21.1808 28.7451 21.2222 28.7345 21.2624C28.721 21.3038 28.709 21.344 28.6981 21.3844C28.6839 21.424 28.6726 21.4654 28.661 21.5075C28.6412 21.5636 28.6246 21.6192 28.6083 21.6773C28.5892 21.729 28.5713 21.7824 28.5565 21.837C28.543 21.8762 28.5283 21.9151 28.5173 21.9559C28.5016 21.9945 28.4881 22.0341 28.4752 22.0736C28.4608 22.1141 28.4467 22.1524 28.4335 22.1932C28.4175 22.2318 28.404 22.272 28.3899 22.3115C28.3644 22.3702 28.3422 22.4298 28.3218 22.4935C28.3039 22.5356 28.286 22.5776 28.2703 22.6216C28.254 22.6583 28.2377 22.6972 28.2226 22.7364C28.2056 22.7754 28.19 22.814 28.1746 22.8523C28.1561 22.889 28.1397 22.9282 28.1244 22.9659C28.0989 23.0161 28.077 23.0682 28.0556 23.12C28.0315 23.1667 28.0086 23.2141 27.9878 23.2627C27.9696 23.2995 27.9508 23.3362 27.9345 23.3748C27.915 23.4115 27.8968 23.4482 27.8793 23.4853C27.8589 23.5217 27.841 23.5584 27.8228 23.596C27.7958 23.6419 27.771 23.6899 27.7474 23.7392C27.7223 23.7828 27.6953 23.8258 27.6721 23.8728C27.6702 23.8772 27.6696 23.8794 27.6677 23.8838C27.6527 23.9089 27.6354 23.9318 27.6219 23.9585C27.6159 23.9698 27.6122 23.9802 27.6065 23.9915C27.5946 24.0094 27.5824 24.0273 27.5714 24.0445C27.5617 24.063 27.5532 24.0812 27.5438 24.0997C27.5369 24.111 27.5287 24.1201 27.5215 24.1321C27.5061 24.1559 27.4939 24.1813 27.4797 24.2058C27.4775 24.2105 27.4738 24.214 27.4716 24.2174C27.4446 24.2576 27.4214 24.2984 27.3981 24.3392C27.3655 24.3869 27.3341 24.434 27.3056 24.4839C27.282 24.519 27.2585 24.5523 27.2371 24.589C27.2124 24.6229 27.1894 24.6562 27.1675 24.6926C27.1421 24.7252 27.1191 24.7604 27.0965 24.7946C27.067 24.83 27.0423 24.8693 27.0165 24.9069C26.976 24.9587 26.9381 25.0092 26.9026 25.0632C26.8769 25.0959 26.8514 25.1298 26.8273 25.1649C26.8012 25.1966 26.7752 25.2286 26.7513 25.2628C26.725 25.2951 26.6989 25.3272 26.6744 25.3617C26.6468 25.3943 26.622 25.427 26.5969 25.4596C26.5577 25.5038 26.521 25.5497 26.4852 25.5971C26.4494 25.6379 26.4124 25.6808 26.3791 25.7238C26.3515 25.7565 26.3226 25.7876 26.2966 25.8211C26.2687 25.8535 26.241 25.883 26.2144 25.9165C26.1855 25.9482 26.1585 25.979 26.1309 26.0119C26.102 26.0418 26.0744 26.0738 26.0474 26.1055C26.0085 26.1453 25.9727 26.1877 25.9366 26.2301C25.8908 26.2765 25.8469 26.3226 25.8054 26.3713C25.7762 26.4036 25.7455 26.4331 25.7172 26.4654C25.6881 26.4965 25.6579 26.5263 25.6303 26.5586C25.6002 26.5885 25.571 26.6192 25.5421 26.6506C25.512 26.6817 25.4822 26.7112 25.4546 26.7413C25.4232 26.7711 25.3946 26.8025 25.3648 26.8326C25.3265 26.8687 25.2926 26.9061 25.2572 26.9434C25.2019 26.993 25.1492 27.0457 25.0993 27.0997C25.0663 27.132 25.0321 27.1628 25.0004 27.1976C24.9691 27.2281 24.9374 27.2563 24.9082 27.2883C24.8762 27.3175 24.8454 27.347 24.8147 27.3778C24.783 27.4088 24.7519 27.4364 24.7221 27.4672C24.6901 27.4967 24.6596 27.5262 24.6292 27.5557C24.5968 27.5846 24.5667 27.6144 24.5363 27.6442C24.504 27.6718 24.4738 27.7029 24.4434 27.7311C24.3969 27.7704 24.3552 27.813 24.3122 27.8542C24.2532 27.9047 24.1958 27.9577 24.1405 28.0123C24.1048 28.045 24.0677 28.076 24.0345 28.1103C24.0018 28.1404 23.9679 28.168 23.9369 28.1994C23.9042 28.2279 23.8709 28.2568 23.8393 28.2869C23.8063 28.3158 23.7733 28.3447 23.7413 28.3736C23.7084 28.4031 23.6761 28.4322 23.6437 28.4614C23.6102 28.489 23.5788 28.5186 23.5468 28.5481C23.5132 28.5757 23.4815 28.6061 23.4492 28.6347C23.4156 28.6623 23.3845 28.6927 23.3519 28.7197C23.3183 28.748 23.2878 28.7784 23.2549 28.8057C23.2194 28.8346 23.188 28.8653 23.1545 28.8955C23.092 28.9447 23.0333 28.9987 22.9743 29.0527C22.9119 29.1057 22.8497 29.1556 22.791 29.2118C22.7568 29.2426 22.7214 29.2689 22.6894 29.2984C22.6552 29.3286 22.6206 29.3574 22.5889 29.3863C22.5544 29.4158 22.5202 29.4431 22.4869 29.4736C22.4829 29.477 22.4778 29.4801 22.4734 29.4839C22.4712 29.4848 22.4694 29.488 22.4672 29.4889C22.4458 29.5068 22.4242 29.5241 22.4035 29.542C22.3658 29.5743 22.3281 29.6038 22.2924 29.6374C22.256 29.6672 22.2202 29.6976 22.1844 29.7287C22.148 29.7591 22.1125 29.789 22.078 29.8194C22.0416 29.8486 22.0061 29.8797 21.9704 29.9107C20.9871 30.7066 20.3569 31.9255 20.3569 33.2888C20.3569 35.6919 22.3049 37.6392 24.7086 37.6392C26.9233 37.6392 28.7511 35.985 29.0229 33.8447C29.0307 33.7932 29.0386 33.742 29.0452 33.6915C29.0533 33.6403 29.0608 33.5904 29.0677 33.5393C29.0759 33.4888 29.0838 33.4385 29.0907 33.388C29.0979 33.3422 29.1054 33.2967 29.1114 33.2506C29.1176 33.2098 29.122 33.1671 29.1271 33.1263C29.1365 33.0695 29.1456 33.0146 29.1531 32.9568C29.1632 32.9006 29.1719 32.8457 29.1798 32.788C29.1883 32.7318 29.1992 32.6769 29.2058 32.6191C29.2149 32.5639 29.2256 32.509 29.2328 32.4528C29.2416 32.401 29.2526 32.3495 29.2586 32.2971C29.2699 32.245 29.2746 32.1907 29.284 32.138C29.2953 32.0822 29.3034 32.0263 29.3116 31.9704C29.3235 31.9127 29.3317 31.8574 29.3408 31.7991C29.3521 31.7451 29.3615 31.6889 29.3693 31.6327C29.3806 31.5775 29.391 31.5223 29.3985 31.4658C29.4098 31.4099 29.4208 31.3559 29.4287 31.301C29.4296 31.2919 29.4309 31.2847 29.4327 31.2781C29.4362 31.2612 29.4384 31.2442 29.4428 31.2276C29.4475 31.1971 29.4544 31.1667 29.4578 31.1356C29.46 31.1278 29.4622 31.1184 29.4638 31.1093C29.4757 31.0534 29.4848 30.9982 29.4943 30.9417C29.5068 30.8877 29.5172 30.8318 29.5256 30.7775C29.5382 30.7223 29.5485 30.6671 29.558 30.6128C29.5705 30.5582 29.5821 30.5042 29.5915 30.4502C29.5956 30.4311 29.6 30.4122 29.6035 30.3918C29.6075 30.3739 29.6119 30.3551 29.6154 30.3366C29.6182 30.3212 29.6226 30.304 29.6248 30.288C29.6295 30.2682 29.6336 30.2478 29.637 30.2274C29.6505 30.1743 29.6606 30.1191 29.6713 30.0645C29.6844 30.0118 29.696 29.9584 29.7051 29.9054C29.718 29.8508 29.7309 29.7996 29.7409 29.7456C29.7485 29.718 29.7544 29.6904 29.761 29.6606C29.7758 29.6101 29.7852 29.5548 29.7968 29.5021C29.8103 29.4497 29.8228 29.3985 29.8332 29.3458C29.8467 29.2953 29.8602 29.2435 29.8715 29.193C29.8809 29.1566 29.8903 29.123 29.8978 29.0882C29.9123 29.0376 29.9242 28.9871 29.9349 28.9353C29.9493 28.8867 29.9622 28.8368 29.9738 28.7859C29.9885 28.7376 30.0033 28.6893 30.0146 28.64C30.0262 28.6014 30.0366 28.56 30.0469 28.5204C30.0623 28.473 30.0745 28.4244 30.0877 28.3758C30.1021 28.3302 30.1175 28.2857 30.1298 28.2383C30.1439 28.1947 30.1574 28.1504 30.1687 28.1068C30.1837 28.0604 30.1976 28.0142 30.2101 27.9693C30.2252 27.9257 30.2424 27.8833 30.2547 27.8378C30.2704 27.7914 30.2854 27.7446 30.2996 27.6982C30.3152 27.6558 30.3294 27.6128 30.3429 27.5692C30.3614 27.5237 30.3793 27.4766 30.3953 27.4286C30.4116 27.3859 30.4257 27.3432 30.4398 27.3012C30.4558 27.262 30.4725 27.2218 30.4863 27.1804C30.5079 27.1323 30.5249 27.0818 30.544 27.0303C30.5607 26.9921 30.5764 26.9535 30.5911 26.9139C30.614 26.8656 30.6357 26.8151 30.6545 26.7642C30.6721 26.7265 30.6875 26.6886 30.7019 26.6506C30.7223 26.6064 30.7443 26.563 30.7631 26.5182C30.7835 26.4761 30.8017 26.4325 30.8196 26.3907C30.84 26.3521 30.8604 26.312 30.8786 26.2721C30.9024 26.2279 30.9241 26.182 30.9435 26.135C30.963 26.0998 30.9815 26.0666 30.9991 26.0298C31.0261 25.9843 31.0496 25.936 31.0725 25.888C31.0845 25.8685 31.0967 25.85 31.1083 25.829C31.1162 25.8145 31.1212 25.7995 31.1284 25.7857C31.1566 25.7399 31.183 25.6928 31.2072 25.6444C31.2276 25.6121 31.247 25.5792 31.2662 25.5434C31.296 25.4985 31.3255 25.4505 31.3518 25.4012C31.3719 25.3702 31.3917 25.3356 31.4127 25.3002C31.4416 25.26 31.4698 25.2167 31.4959 25.1715C31.5201 25.1367 31.5433 25.0981 31.5665 25.061C31.5938 25.0243 31.6214 24.9854 31.6453 24.9465C31.6742 24.9085 31.7005 24.8658 31.7275 24.8235C31.7523 24.7914 31.7771 24.7601 31.7994 24.7246C31.8326 24.6822 31.8634 24.6373 31.8935 24.5912C31.9199 24.5586 31.9447 24.5253 31.9685 24.4905C32.0021 24.4497 32.0344 24.4082 32.0652 24.3653C32.0922 24.3317 32.1176 24.2962 32.1427 24.2614C32.1725 24.2275 32.2008 24.1942 32.2278 24.1575C32.2607 24.1189 32.2908 24.0793 32.321 24.0385C32.352 24.0047 32.3803 23.9701 32.4085 23.9334C32.4405 23.8973 32.4719 23.8615 32.502 23.8236C32.5337 23.7887 32.5632 23.7514 32.5915 23.715C32.6241 23.6795 32.6558 23.6434 32.6869 23.6058C32.7173 23.5731 32.7472 23.5421 32.776 23.5079C32.8096 23.4711 32.8401 23.4344 32.8727 23.3971C32.9085 23.361 32.9424 23.3246 32.975 23.286C33.0026 23.2565 33.0315 23.2289 33.0572 23.1994C33.0936 23.1626 33.1269 23.124 33.1614 23.0876C33.1978 23.0509 33.2336 23.0129 33.2678 22.975C33.3048 22.9376 33.3438 22.9006 33.3786 22.862C33.4034 22.8378 33.4266 22.8146 33.4505 22.7885C33.4894 22.7525 33.5252 22.7142 33.5612 22.6756C33.5998 22.6388 33.6388 22.5999 33.6752 22.562C33.7141 22.5246 33.7543 22.4873 33.791 22.4477C33.8104 22.4283 33.8299 22.4116 33.849 22.3909C33.8685 22.3746 33.8867 22.3542 33.9065 22.3357C33.9077 22.3344 33.909 22.3332 33.9102 22.3319C33.9297 22.3147 33.9463 22.2952 33.9655 22.277C34.0066 22.2403 34.0464 22.201 34.0838 22.1631C34.1249 22.126 34.1654 22.0874 34.2037 22.0479C34.2457 22.0105 34.2875 21.9726 34.3261 21.933C34.3383 21.9211 34.3502 21.9107 34.3625 21.8982C34.3797 21.8838 34.3951 21.8681 34.4108 21.8536C34.423 21.8417 34.4375 21.8304 34.4488 21.8175C34.4601 21.8062 34.4717 21.7959 34.4839 21.7849C34.526 21.7476 34.5658 21.709 34.606 21.6707C34.6484 21.6339 34.6901 21.596 34.73 21.5571C34.7726 21.5197 34.8153 21.4811 34.8555 21.4422C34.8979 21.4055 34.9412 21.3662 34.9817 21.3286C34.9851 21.3245 34.9876 21.3217 34.9911 21.3195C34.9911 21.3182 34.9923 21.3182 34.9936 21.3163C35.0309 21.2815 35.0727 21.2479 35.1091 21.2115C35.1119 21.209 35.1128 21.2078 35.1157 21.2056C35.1584 21.1695 35.1992 21.1309 35.2406 21.0941C35.2845 21.0574 35.3256 21.0198 35.3677 20.9812C35.4113 20.9451 35.4534 20.9065 35.4945 20.8682C35.5387 20.8321 35.5811 20.7935 35.6225 20.7558C35.6677 20.7191 35.711 20.6811 35.7528 20.6432C35.797 20.6058 35.8406 20.5688 35.8833 20.5302C35.9225 20.4953 35.9655 20.463 36.0032 20.4263C36.039 20.3974 36.0722 20.3648 36.1061 20.3356C36.1513 20.2989 36.1918 20.2609 36.2354 20.2251C36.2791 20.189 36.3211 20.1504 36.3647 20.114C36.4093 20.0783 36.451 20.0406 36.494 20.0029C36.5389 19.9668 36.5825 19.9295 36.6246 19.8925C36.6692 19.8558 36.7128 19.819 36.7564 19.7814C36.8 19.7447 36.8446 19.7082 36.8879 19.6703C36.8888 19.669 36.8901 19.6678 36.8914 19.6668C36.9513 19.621 37.0087 19.5724 37.0655 19.5231C37.106 19.4908 37.1462 19.4572 37.1845 19.4233C37.2256 19.3906 37.2661 19.3574 37.305 19.3235C37.3455 19.2893 37.386 19.2563 37.4255 19.2224C37.4669 19.1882 37.508 19.1546 37.5473 19.1198C37.5887 19.0872 37.6304 19.0536 37.6697 19.0188C37.6932 19.0009 37.7152 18.9814 37.7368 18.9616C37.7428 18.9582 37.7488 18.955 37.7528 18.9516C37.7892 18.9215 37.8231 18.8901 37.8589 18.8618C37.8699 18.8518 37.8806 18.8452 37.8922 18.8355C37.9223 18.8113 37.9512 18.7849 37.9804 18.7611C37.9961 18.7476 38.0143 18.7344 38.0309 18.7212C38.0551 18.7018 38.0783 18.6798 38.1031 18.66C38.1247 18.6415 38.1476 18.6249 38.1693 18.6064C38.1884 18.5923 38.2057 18.5737 38.2261 18.559C38.2531 18.5361 38.282 18.5163 38.3093 18.4925C38.3228 18.4808 38.3369 18.4683 38.3491 18.456C38.3827 18.4291 38.4153 18.4052 38.4483 18.377C38.4571 18.3697 38.4649 18.3638 38.4737 18.3553C38.5117 18.3239 38.5506 18.295 38.5876 18.2627C38.5914 18.2593 38.5945 18.2558 38.598 18.2536C38.6127 18.2398 38.6294 18.2279 38.6444 18.215C38.683 18.184 38.7235 18.1504 38.764 18.1165Z" fill="url(#paint2_linear_62_18)"/>
<path d="M49.3419 33.199C49.3061 33.1532 49.2691 33.1099 49.2308 33.065C49.195 33.0207 49.1589 32.9762 49.12 32.9341C49.0849 32.8899 49.0491 32.845 49.0111 32.8026C48.9841 32.7675 48.9549 32.7336 48.9261 32.7003C48.8906 32.6545 48.8542 32.6109 48.8153 32.5676C48.7805 32.5233 48.7437 32.48 48.7064 32.4373C48.6722 32.3924 48.6377 32.3494 48.6003 32.3071C48.567 32.2625 48.5328 32.2192 48.4971 32.1765C48.4644 32.1345 48.433 32.0937 48.3976 32.0541C48.3649 32.0092 48.3292 31.9662 48.2928 31.9226C48.2601 31.8799 48.2272 31.8376 48.1914 31.7965C48.1587 31.7525 48.1274 31.7105 48.0925 31.669C48.0599 31.6251 48.0276 31.5818 47.9918 31.5391C47.9588 31.492 47.9227 31.4462 47.8857 31.4035C47.8556 31.3596 47.8239 31.3188 47.7897 31.2793C47.7614 31.2378 47.7316 31.1958 47.6999 31.1575C47.6651 31.1063 47.6296 31.0571 47.5913 31.0116C47.5603 30.9667 47.5286 30.9243 47.4944 30.8829C47.4674 30.8415 47.4385 30.8032 47.4093 30.7646C47.3767 30.7153 47.3425 30.6667 47.3054 30.6199C47.2747 30.5741 47.2433 30.5279 47.2081 30.4843C47.1843 30.4476 47.1582 30.4077 47.1312 30.3729C47.0989 30.3183 47.0635 30.2678 47.0255 30.2197C46.9988 30.1749 46.9706 30.1331 46.9401 30.0933C46.9138 30.0484 46.8855 30.0057 46.8551 29.963C46.851 29.9571 46.8485 29.9505 46.845 29.9439C46.818 29.8965 46.7882 29.8532 46.7578 29.8111C46.7459 29.7907 46.7358 29.7694 46.7223 29.7499C46.7113 29.733 46.6994 29.7173 46.6884 29.7007C46.6614 29.6517 46.6319 29.6028 46.6009 29.5563C46.598 29.5522 46.5943 29.5491 46.5936 29.5463C46.5723 29.507 46.5485 29.4681 46.524 29.4308C46.497 29.3777 46.4662 29.3269 46.433 29.2751C46.4123 29.2331 46.3881 29.1929 46.3633 29.1533C46.3388 29.0994 46.3084 29.0488 46.2776 28.997C46.2575 28.9534 46.2343 28.9111 46.2092 28.869C46.185 28.8169 46.1587 28.7639 46.1282 28.7133C46.1081 28.6691 46.0862 28.6264 46.062 28.5837C46.0397 28.5291 46.0152 28.4773 45.9864 28.4268C45.9675 28.3804 45.9465 28.3361 45.9224 28.2931C45.9029 28.2413 45.8812 28.1902 45.8546 28.1409C45.8364 28.0932 45.8156 28.0461 45.7927 28.0016C45.7758 27.9545 45.757 27.9084 45.7353 27.8641C45.7168 27.8108 45.6951 27.7565 45.6703 27.705C45.6553 27.6592 45.6374 27.6118 45.617 27.5682C45.6 27.5117 45.5793 27.4577 45.5558 27.4072C45.5423 27.3591 45.5244 27.3139 45.5065 27.2697C45.4902 27.2129 45.472 27.158 45.4488 27.1034C45.4359 27.0579 45.4205 27.013 45.403 26.9672C45.3882 26.9107 45.3706 26.8539 45.3496 26.7993C45.3371 26.7534 45.3236 26.7092 45.3079 26.6643C45.2944 26.6053 45.2774 26.5479 45.2573 26.4914C45.2467 26.4478 45.2338 26.4054 45.2209 26.3615C45.2087 26.3003 45.1911 26.2431 45.1717 26.1848C45.1622 26.1389 45.15 26.0928 45.1359 26.0486C45.124 25.9905 45.1105 25.9375 45.0932 25.8829C45.0825 25.827 45.0684 25.7702 45.0521 25.7162C45.0439 25.6713 45.0329 25.6268 45.0207 25.5835C45.01 25.5223 44.9965 25.4636 44.9808 25.4049C44.9702 25.3522 44.9586 25.2982 44.9444 25.247C44.936 25.1978 44.9262 25.1494 44.9131 25.1024C44.904 25.0452 44.8936 24.9903 44.8798 24.9354C44.8785 24.9301 44.8785 24.9257 44.8785 24.9216C44.8704 24.8704 44.8581 24.8221 44.8456 24.7731C44.8415 24.7521 44.8402 24.7311 44.8368 24.7088C44.8311 24.679 44.822 24.6514 44.8155 24.6216C44.8089 24.5808 44.8038 24.5384 44.796 24.4976C44.7932 24.4866 44.7891 24.4762 44.7866 24.465C44.7794 24.4097 44.7696 24.3539 44.7568 24.3002C44.7486 24.2475 44.7383 24.1951 44.7266 24.1423C44.7185 24.0877 44.7094 24.0347 44.6978 23.9807C44.6905 23.9261 44.6818 23.8721 44.6701 23.8172C44.6626 23.7613 44.6557 23.7061 44.6435 23.6512C44.6375 23.6019 44.6275 23.5533 44.6181 23.5043C44.6115 23.4491 44.6024 23.3938 44.5904 23.3383C44.5842 23.283 44.576 23.2278 44.5641 23.1713C44.5575 23.1142 44.55 23.0583 44.539 23.0025C44.5317 22.9444 44.5255 22.8882 44.5135 22.8289C44.5085 22.7888 44.5032 22.7461 44.495 22.7059C44.4894 22.6485 44.4803 22.5923 44.4706 22.5358C44.464 22.4777 44.4552 22.4228 44.4445 22.3635C44.4389 22.3067 44.431 22.2499 44.4213 22.1925C44.4147 22.1338 44.4072 22.077 44.3965 22.0189C44.3905 21.9593 44.3842 21.9015 44.3745 21.8425C44.3679 21.7835 44.3613 21.7261 44.351 21.6662C44.3478 21.637 44.3441 21.6065 44.3394 21.5767C44.3331 21.5187 44.3249 21.4606 44.3158 21.4032C44.3102 21.3451 44.303 21.2871 44.2935 21.2296C44.2879 21.1706 44.2801 21.1126 44.2706 21.0539C44.2659 20.9949 44.2581 20.9371 44.2493 20.8775C44.243 20.8194 44.2364 20.7611 44.227 20.7011C44.2214 20.6415 44.2148 20.5828 44.2057 20.5232C44.1994 20.4645 44.1941 20.4036 44.1853 20.3446C44.1781 20.2856 44.1727 20.225 44.1633 20.1667C44.1624 20.1522 44.1599 20.1375 44.1586 20.123C44.1577 20.1086 44.1551 20.0929 44.1536 20.0788C44.1489 20.0471 44.147 20.0179 44.1413 19.9856C44.1401 19.9737 44.1385 19.9614 44.1366 19.9489C44.1326 19.8902 44.1238 19.8324 44.1169 19.7737C44.1122 19.7135 44.1037 19.6564 44.0958 19.5974C44.0908 19.5384 44.0836 19.479 44.0761 19.4207C44.0714 19.361 44.0635 19.3024 44.056 19.2427C44.0513 19.184 44.0437 19.1257 44.0362 19.0664C44.0312 19.0048 44.0246 18.9468 44.0164 18.8878C44.0111 18.8269 44.0039 18.7688 43.9976 18.7098C43.9913 18.6493 43.9854 18.5893 43.9775 18.5297C43.9709 18.4688 43.9665 18.4108 43.9577 18.3492C43.9518 18.2902 43.9464 18.23 43.9389 18.1704C43.9311 18.1107 43.9276 18.0508 43.9188 17.9893C43.9126 17.9312 43.9088 17.8728 43.9006 17.8142C43.8984 17.7865 43.8937 17.7577 43.8912 17.7291C43.8878 17.7087 43.8878 17.6842 43.8843 17.6626C43.8809 17.6039 43.8718 17.5477 43.8661 17.489C43.8614 17.4303 43.8536 17.3732 43.847 17.3142C43.8435 17.2543 43.8347 17.1959 43.8281 17.1366C43.8247 17.0776 43.8168 17.0183 43.8102 16.9596C43.8062 16.8999 43.7989 16.8419 43.7927 16.7829C43.788 16.7324 43.7826 16.6818 43.7779 16.6304C43.7723 16.5569 43.7657 16.4857 43.7575 16.4132C43.7528 16.3558 43.7462 16.3002 43.7403 16.2434C43.7346 16.1882 43.7286 16.132 43.7224 16.0746C43.717 16.0168 43.7117 15.9616 43.706 15.9057C43.7013 15.848 43.6954 15.7927 43.6882 15.734C43.6835 15.6769 43.6784 15.6208 43.6715 15.5627C43.6668 15.5068 43.6612 15.4497 43.6546 15.3926C43.6496 15.3336 43.6445 15.278 43.6379 15.2209C43.6348 15.183 43.6304 15.144 43.6266 15.1054C43.6219 15.0486 43.6153 14.9925 43.6097 14.9363C43.6056 14.8785 43.5978 14.8227 43.5928 14.7662C43.5877 14.7091 43.5815 14.6538 43.5758 14.5961C43.5711 14.5399 43.5648 14.4818 43.5595 14.425C43.5548 14.3679 43.5488 14.3127 43.5422 14.2549C43.5375 14.1969 43.5325 14.142 43.5256 14.0826C43.5203 14.0268 43.5155 13.969 43.5093 13.9125C43.5046 13.8539 43.4992 13.798 43.4926 13.7403C43.4876 13.6828 43.4829 13.626 43.476 13.568C43.4713 13.5108 43.4666 13.4537 43.46 13.3944C43.455 13.3373 43.4496 13.2795 43.4431 13.2234C43.438 13.165 43.4336 13.1072 43.427 13.0498C43.4223 12.9927 43.417 12.9362 43.411 12.8772C43.4048 12.8191 43.4007 12.7614 43.3941 12.704C43.3925 12.6798 43.3903 12.655 43.3869 12.6315C43.3828 12.5734 43.3771 12.5179 43.3718 12.4598C43.3668 12.4024 43.3605 12.3468 43.3549 12.2894C43.3508 12.2316 43.3448 12.1758 43.3392 12.1193C43.3345 12.0603 43.3285 12.0032 43.3232 11.9457C43.3181 11.8883 43.3128 11.8321 43.3065 11.7747C43.3025 11.7173 43.2968 11.6598 43.2902 11.6018C43.2864 11.545 43.2802 11.4888 43.2748 11.4307C43.2698 11.3727 43.2648 11.3152 43.2585 11.2572C43.2541 11.201 43.2491 11.143 43.2428 11.0849C43.2381 11.0275 43.2322 10.9707 43.2265 10.9132C43.1085 9.44855 42.4906 8.01684 41.3702 6.89707C38.8651 4.39267 34.8029 4.39267 32.2981 6.89707C29.8408 9.35221 29.7947 13.3037 32.156 15.8163C32.1917 15.8577 32.2291 15.8963 32.2664 15.9371C32.3022 15.9766 32.3399 16.0168 32.3772 16.056C32.413 16.095 32.4507 16.1351 32.488 16.175C32.5238 16.2145 32.5614 16.2541 32.5982 16.2939C32.6346 16.3341 32.6729 16.3736 32.7093 16.4132C32.772 16.4857 32.8379 16.5544 32.9041 16.6247C32.9449 16.668 32.9845 16.7126 33.0256 16.7556C33.0272 16.7581 33.0294 16.7594 33.0306 16.7603C33.0633 16.7964 33.0956 16.8325 33.1298 16.8686C33.1332 16.8733 33.1364 16.8752 33.1392 16.8777C33.1715 16.9131 33.2007 16.9464 33.2337 16.9809C33.2393 16.9863 33.2437 16.9913 33.2478 16.996C33.2779 17.0283 33.3068 17.0613 33.3372 17.0945C33.3438 17.1011 33.3504 17.1071 33.3561 17.1137C33.3853 17.1441 33.4122 17.1749 33.4417 17.2072C33.449 17.215 33.4581 17.2235 33.4653 17.2314C33.4916 17.2602 33.518 17.29 33.5456 17.3195C33.555 17.3293 33.5648 17.3381 33.5742 17.3497C33.6002 17.3767 33.6238 17.4049 33.6489 17.4325C33.6611 17.4451 33.6718 17.4554 33.6834 17.468C33.7076 17.4931 33.7292 17.5198 33.7537 17.5461C33.7659 17.5587 33.7801 17.5725 33.7929 17.5851C33.8143 17.6092 33.8347 17.6334 33.8563 17.6572C33.8717 17.6736 33.888 17.6874 33.9021 17.7031C33.9216 17.7253 33.9398 17.7479 33.9611 17.7693C33.9772 17.7872 33.995 17.8041 34.0117 17.8226C34.0292 17.8411 34.0475 17.8634 34.0653 17.8823C34.0842 17.9027 34.1021 17.9205 34.1212 17.9409C34.1372 17.9582 34.1523 17.9777 34.1695 17.9962C34.1887 18.0178 34.21 18.0389 34.2304 18.0599C34.2445 18.0756 34.2587 18.0925 34.2722 18.1085C34.2938 18.1321 34.3177 18.1543 34.3393 18.1788C34.3519 18.192 34.3641 18.208 34.3763 18.2215C34.3999 18.2479 34.4247 18.2717 34.4482 18.2984C34.4589 18.3091 34.4689 18.3223 34.4799 18.3351C34.5063 18.363 34.5326 18.3885 34.5593 18.4167C34.5672 18.4274 34.5753 18.4377 34.5847 18.4478C34.6117 18.4795 34.6403 18.5074 34.6685 18.5366C34.6757 18.5441 34.6808 18.5523 34.688 18.5601C34.7172 18.5934 34.7486 18.6238 34.7777 18.6568C34.7834 18.6615 34.7872 18.6681 34.7922 18.6725C34.8233 18.7086 34.8549 18.7418 34.8879 18.7757C34.891 18.7792 34.8936 18.7817 34.8954 18.7855C34.929 18.8238 34.9629 18.8598 34.9977 18.8963C34.9977 18.8975 34.999 18.8975 34.9993 18.8975C35.0555 18.9625 35.1126 19.0262 35.1722 19.0868C35.2077 19.1269 35.2432 19.1665 35.2808 19.2051C35.3166 19.2446 35.3521 19.2848 35.3891 19.3215C35.4249 19.3623 35.4603 19.4025 35.498 19.4404C35.5338 19.48 35.5699 19.522 35.6069 19.56C35.6427 19.5989 35.6785 19.6391 35.7152 19.6777C35.7516 19.7185 35.7877 19.7587 35.8253 19.7966C35.8611 19.8381 35.8972 19.8782 35.9342 19.9184C36.0008 19.9919 36.0692 20.0669 36.1392 20.1365C36.1753 20.1751 36.2076 20.2166 36.2446 20.2533C36.2794 20.2903 36.3124 20.3308 36.3482 20.3663C36.3827 20.403 36.416 20.4444 36.4517 20.4799C36.4863 20.5182 36.518 20.5586 36.555 20.5941C36.5898 20.6315 36.6228 20.6716 36.6586 20.7083C36.6934 20.7473 36.7263 20.7859 36.7621 20.8229C36.796 20.8615 36.8299 20.9004 36.8657 20.9371C36.9008 20.9757 36.9332 21.0159 36.9689 21.0526C37.0038 21.0906 37.038 21.1295 37.0731 21.1662C37.107 21.2058 37.1412 21.245 37.1773 21.2823C37.2112 21.32 37.2451 21.3592 37.2809 21.3975C37.3151 21.4361 37.3496 21.4744 37.3854 21.513C37.4187 21.5519 37.4544 21.5893 37.489 21.6279C37.5235 21.6674 37.5577 21.7048 37.5935 21.7431C37.6271 21.7839 37.6625 21.8218 37.6983 21.8598C37.7316 21.8987 37.767 21.9386 37.8015 21.9769C37.8351 22.0161 37.8706 22.055 37.9064 22.093C37.9396 22.1338 37.9751 22.1708 38.0109 22.2094C38.0438 22.2502 38.0799 22.2882 38.1154 22.3258C38.1612 22.3855 38.2133 22.4395 38.2635 22.4941C38.3206 22.5628 38.3781 22.6315 38.4399 22.6937C38.4735 22.7326 38.5055 22.7728 38.5409 22.8085C38.5745 22.8468 38.6065 22.887 38.6423 22.9243C38.675 22.9623 38.7076 23.0025 38.7421 23.0379C38.7757 23.0759 38.8083 23.1161 38.8432 23.1528C38.8764 23.193 38.9097 23.2316 38.9449 23.2686C38.9775 23.3078 39.0108 23.348 39.0459 23.3854C39.0785 23.4249 39.1118 23.4641 39.1476 23.5018C39.1802 23.542 39.2138 23.5806 39.2486 23.6192C39.2813 23.6593 39.3152 23.6983 39.3497 23.7362C39.382 23.777 39.4162 23.8144 39.4508 23.8545C39.4831 23.8953 39.5185 23.9336 39.5531 23.9722C39.5929 24.0256 39.6372 24.0733 39.6808 24.1222C39.7276 24.1825 39.7753 24.2393 39.8264 24.2939C39.8591 24.3338 39.8895 24.3739 39.925 24.4107C39.9563 24.4496 39.988 24.4897 40.0229 24.5271C40.0555 24.5679 40.0872 24.6071 40.1217 24.6448C40.1528 24.6862 40.1851 24.7254 40.2197 24.7631C40.2517 24.8039 40.2843 24.8444 40.3185 24.882C40.3496 24.9228 40.3825 24.9633 40.4164 25.001C40.4475 25.043 40.4804 25.0838 40.5147 25.1224C40.5511 25.1711 40.589 25.2172 40.6279 25.2624C40.6678 25.317 40.7111 25.3691 40.7547 25.4196C40.7861 25.4604 40.8163 25.5019 40.8508 25.5398C40.8815 25.5806 40.9123 25.6202 40.9462 25.6588C40.9766 25.7008 41.0083 25.7423 41.0422 25.7805C41.072 25.8226 41.1037 25.864 41.1373 25.9023C41.1674 25.9456 41.1985 25.9852 41.2315 26.0266C41.2679 26.0799 41.308 26.1311 41.3504 26.1804C41.3812 26.2256 41.4138 26.2701 41.4486 26.3109C41.4778 26.3533 41.5083 26.3947 41.5406 26.434C41.5704 26.4776 41.6005 26.519 41.6319 26.5589C41.6614 26.6028 41.6919 26.6439 41.7235 26.6847C41.7515 26.7277 41.7825 26.7698 41.8142 26.8102C41.8475 26.8642 41.8836 26.9154 41.9228 26.9653C41.9505 27.0073 41.9803 27.05 42.0107 27.0905C42.0383 27.1347 42.0678 27.1765 42.0983 27.2189C42.1246 27.2628 42.1541 27.3055 42.1846 27.3482C42.2147 27.4006 42.2464 27.4508 42.2825 27.4975C42.3089 27.543 42.3365 27.5854 42.3672 27.6281C42.393 27.6723 42.4206 27.7157 42.4504 27.7577C42.4749 27.8048 42.5025 27.8484 42.532 27.8923C42.559 27.9422 42.5882 27.9928 42.6205 28.0405C42.644 28.086 42.6707 28.1305 42.6989 28.1726C42.7231 28.2197 42.7482 28.2646 42.7765 28.3082C42.7987 28.3546 42.8242 28.4008 42.8518 28.4441C42.8756 28.4962 42.9023 28.5454 42.9324 28.5935C42.9541 28.6402 42.9779 28.6854 43.0046 28.7309C43.0253 28.7777 43.0482 28.8244 43.0734 28.8684C43.0941 28.9155 43.116 28.9644 43.1411 29.008C43.1622 29.0601 43.187 29.1094 43.2133 29.1599C43.2315 29.207 43.2535 29.2538 43.2773 29.3008C43.2959 29.3476 43.3169 29.3962 43.3392 29.4418C43.3586 29.4935 43.3797 29.5466 43.4041 29.5968C43.4211 29.6451 43.4405 29.6934 43.4631 29.7393C43.4795 29.7885 43.4986 29.8372 43.5212 29.883C43.5359 29.9323 43.5538 29.9816 43.5746 30.0289C43.5909 30.0817 43.611 30.1356 43.6329 30.1887C43.6477 30.238 43.6656 30.2857 43.6847 30.3346C43.6982 30.3839 43.7148 30.4325 43.7327 30.4805C43.7475 30.5355 43.7641 30.5907 43.7845 30.6437C43.7967 30.6943 43.814 30.7448 43.8325 30.7941C43.8444 30.8433 43.8595 30.8926 43.8765 30.9422C43.8881 30.9915 43.9016 31.0411 43.9182 31.0906C43.9304 31.1421 43.9439 31.1945 43.9606 31.2451C43.9719 31.3025 43.9876 31.358 44.0061 31.4133C44.0164 31.4644 44.0287 31.5131 44.045 31.5642C44.0541 31.6129 44.0657 31.6621 44.0814 31.7136C44.0905 31.7623 44.1015 31.8122 44.1156 31.8617C44.1275 31.9254 44.1407 31.9863 44.1583 32.0497C44.169 32.0996 44.1787 32.1508 44.1928 32.2007C44.2022 32.2518 44.2123 32.3024 44.2264 32.351C44.2355 32.4028 44.2446 32.4527 44.2581 32.502C44.2656 32.5525 44.276 32.6018 44.2882 32.6523C44.2957 32.7016 44.3061 32.7521 44.3177 32.8017C44.3271 32.8695 44.3394 32.9379 44.3554 33.0066C44.3563 33.0079 44.3569 33.0094 44.3576 33.0119C44.3642 33.0534 44.3695 33.0948 44.3792 33.1369C44.3805 33.1472 44.3839 33.1554 44.3864 33.1645C44.3912 33.199 44.3949 33.2335 44.4021 33.269C44.4046 33.2853 44.4106 33.3016 44.4141 33.316C44.4175 33.3449 44.42 33.3725 44.4244 33.4002C44.4298 33.4231 44.4363 33.446 44.4404 33.4692C44.4439 33.4887 44.4439 33.5094 44.448 33.531C44.4533 33.5608 44.4605 33.5907 44.4668 33.6189C44.4687 33.633 44.4687 33.6475 44.4712 33.6619C44.4765 33.6986 44.4847 33.7334 44.4922 33.7711C44.4922 33.778 44.4922 33.7849 44.4938 33.7918C44.4994 33.8354 44.5082 33.8778 44.5167 33.9202C44.5167 33.9214 44.5167 33.9227 44.5167 33.924C44.5248 34.003 44.538 34.0799 44.5537 34.1559C44.5609 34.2086 44.5672 34.2598 44.5779 34.3103C44.5848 34.3624 44.592 34.4123 44.6014 34.4634C44.609 34.5152 44.6155 34.5657 44.6246 34.6163C44.6309 34.6677 44.6372 34.7195 44.6476 34.7694C44.6523 34.8206 44.6601 34.8711 44.6695 34.921C44.6742 34.9725 44.6818 35.0224 44.6896 35.0729C44.6959 35.1234 44.7034 35.174 44.7106 35.2245C44.8384 36.5796 45.9776 37.6407 47.3673 37.6407C48.841 37.6407 50.0352 36.4472 50.0352 34.9722C50.0283 34.2946 49.7672 33.6716 49.3419 33.199Z" fill="url(#paint3_linear_62_18)"/>
<defs>
<linearGradient id="paint0_linear_62_18" x1="4.33233" y1="38.0499" x2="17.6864" y2="34.9664" gradientUnits="userSpaceOnUse">
<stop stop-color="#FF0097"/>
<stop offset="1" stop-color="#FFC516"/>
</linearGradient>
<linearGradient id="paint1_linear_62_18" x1="30.7941" y1="14.4888" x2="12.2902" y2="7.1793" gradientUnits="userSpaceOnUse">
<stop stop-color="#FF7300"/>
<stop offset="1" stop-color="#FFC516"/>
</linearGradient>
<linearGradient id="paint2_linear_62_18" x1="29.0278" y1="10.1345" x2="15.3354" y2="17.659" gradientUnits="userSpaceOnUse">
<stop stop-color="#6E0097"/>
<stop offset="1" stop-color="#FF7300"/>
</linearGradient>
<linearGradient id="paint3_linear_62_18" x1="27.8201" y1="24.6981" x2="52.7711" y2="39.13" gradientUnits="userSpaceOnUse">
<stop offset="0.0221" stop-color="#6E0097"/>
<stop offset="1" stop-color="#FF0009"/>
</linearGradient>
</defs>
</svg>
