<svg width="24" height="20" viewBox="0 0 24 20" fill="none" xmlns="http://www.w3.org/2000/svg">
<path fill-rule="evenodd" clip-rule="evenodd" d="M23.7821 3.01555C23.1287 3.96815 22.3387 4.77979 21.4122 5.4505C21.4219 5.58658 21.4268 5.79071 21.4268 6.06288C21.4268 7.32653 21.2415 8.58773 20.8709 9.84652C20.5003 11.1053 19.9371 12.313 19.1812 13.4698C18.4254 14.6265 17.5257 15.6496 16.4821 16.539C15.4386 17.4284 14.1805 18.138 12.7078 18.6677C11.2352 19.1975 9.6601 19.4624 7.98262 19.4624C5.33961 19.4624 2.92094 18.7576 0.726562 17.3482C1.06791 17.3871 1.44826 17.4065 1.86763 17.4065C4.06201 17.4065 6.01742 16.7358 7.73392 15.3944C6.70987 15.375 5.79313 15.0615 4.98364 14.454C4.17416 13.8464 3.61825 13.0712 3.31592 12.1284C3.63776 12.177 3.93522 12.2013 4.2083 12.2013C4.62767 12.2013 5.04215 12.1478 5.45177 12.0409C4.35945 11.8173 3.4549 11.2754 2.73807 10.4152C2.02124 9.5549 1.66283 8.55615 1.66283 7.41887V7.36054C2.32602 7.72992 3.03796 7.92918 3.79868 7.95834C3.15499 7.53065 2.64298 6.97173 2.26262 6.28159C1.88226 5.59144 1.69208 4.84298 1.69208 4.03619C1.69208 3.18079 1.90665 2.38859 2.33577 1.65957C3.51586 3.1079 4.95193 4.26704 6.64404 5.13702C8.33615 6.00699 10.1477 6.49057 12.0788 6.58778C12.0007 6.2184 11.9617 5.85875 11.9617 5.50882C11.9617 4.20629 12.4226 3.09575 13.3442 2.17717C14.2658 1.2586 15.3801 0.799316 16.687 0.799316C18.0523 0.799316 19.2032 1.29505 20.1394 2.28653C21.2025 2.0824 22.2021 1.70331 23.1384 1.14925C22.7775 2.26709 22.0851 3.13219 21.0611 3.74458C21.9681 3.64737 22.8751 3.40437 23.7821 3.01555Z" fill="#231F20"/>
</svg>
